<mxfile host="app.diagrams.net" agent="Mozilla/5.0 (X11; Linux x86_64) AppleWebKit/537.36 (KHTML, like Gecko) Chrome/128.0.0.0 Safari/537.36" version="24.7.7">
  <diagram name="Page-1" id="PwUf_3Eot8m6QrV9AfVs">
    <mxGraphModel dx="1368" dy="751" grid="1" gridSize="10" guides="1" tooltips="1" connect="1" arrows="1" fold="1" page="1" pageScale="1" pageWidth="850" pageHeight="1100" math="0" shadow="0">
      <root>
        <mxCell id="0" />
        <mxCell id="1" parent="0" />
        <mxCell id="F3jdzz_wUt6CEXbVW0qb-1" value="" style="shape=image;verticalLabelPosition=bottom;labelBackgroundColor=default;verticalAlign=top;aspect=fixed;imageAspect=0;image=data:image/png,iVBORw0KGgoAAAANSUhEUgAAAgAAAAIACAYAAAD0eNT6AAAAAXNSR0IArs4c6QAAIABJREFUeAHt3T2PJGe5BuBHOODLiIAACQsR8QuQSED8ASwHJwQJCR8OmMyBRUhAZDkgA4nYzkgckdkiQDoS1kksIW2IQIAhQVrEV2LO3tbWeHd2dnq6nurqfquukla9M9P1VtX1Pl332931UXX66dmqeqGqXq6q16rqjap6u6ruVdX9qvqPfwzUgBpQA2pghzWQDEwWJhOTjcnIZGUyM9k55PRcVb1UVb+oqn/tsFMNagzs1IAaUANqoFMDyc5kaLI0mXrR0yeq6pWqeqeq3hf6RvNqQA2oATWgBhapgWRqsjUZm6y9mOmZqvpOVf1BRy/S0Z0Ro3m941ADakANbLsGkrXJ3GTvWafnq+o3gl/wqwE1oAbUgBpYtQaSvcng1acvVNUvdfaqnW1Uv+1Rvf7Vv2pADcypgWRxMnmV6atV9RfhL/zVgBpQA2pADVxEDSSTk80nnV6sqn/r8Ivo8DkjRfN4h6EG1IAa2GYNJJuT0YtPOdjgx4Jf8KsBNaAG1IAauOgaSFYvdoBgGnpTh190hxvRb3NEr1/1qxpQA3NqIJm9yCDAO38FOKcAzaNu1IAaUAPnq4Fkd2vK9wk6kIEaUANqQA2ogfFqYPYxATmi0AF/43W4F6k+UwNqQA2ogdRAMvzoswNyTqFT/RSQnYgaUANqQA2MXQPJ8qOuE+AiP2N3uBes/lMDakANqIGpBpLpd5pyacFpJo8s1IAaUANqQA2MXwMHLxuc0wZOdW3/6daG33tw7+OvVdUXR77f8Z2GUp5EgAABAgSeLvDswyxMJiYbc/vfZOUpBlzJ9ltPDcwdhpZe8HtV9f2q+tTTDfyFAAECBAgQeJiVycxk59J5nIy/cco9hpe8pW+OPvyRd/k3WvslAQIECBC4TSCfDiRDlzwbLxmfrH9iemXB0UZGLl95Ygl+QYAAAQIECBwjkCxd8tOAZP0T0zsLDQDerarPP9G6XxAgQIAAAQJzBJKpydYlvhJI1j82PVdV7y/QeEYpwv8xWj8QIECAAIG2QLJ1iU8CkvXJ/KvppQXCP99T+Nj/itR/CBAgQIDAogLJ2CWOCUjmX0059aD70UIOVjARIECAAAECpxNI1nbzOpn/wZQjDbvnHeZjibRjIkCAAAECBE4nkKztfhWQzP8gs19YYDSRcxZNBAgQIECAwOkFkrndTwGS/fVys6GMJFzk5/QdbgkECBAgQCACydzuJ/fJ/nqtOQC4+i5BvxAgQIAAAQKrCHSP3Uv21xvNAUCuX2wiQIAAAQIE1hNI9na+Bkj219vNRnITAxMBAgQIECCwnkCytzMASPbXvWYjuaufiQABAgQIEFhPINnbGQAk++t+sxGn/63X4ZZEgAABAgQikOztDACS/a0GsnATAQIECBAgsL5AZwDwQX63G1h/my2RAAECBAjsXqCd3+0Gdt8FAAgQIECAwPoC7fxuN7D+NlsiAQIECBDYvUA7v9sN7L4LABAgQIAAgfUF2vndbmD9bbZEAgQIECCwe4F2frcb2H0XACBAgAABAusLtPO73cD622yJBAgQIEBg9wLt/G43sPsuAECAAAECBNYXaOd3u4H1t9kSCRAgQIDA7gXa+d1uYPddAIAAAQIECKwv0M7vdgPrb7MlEiBAgACB3Qu087vdwO67AAABAgQIEFhfoJ3f7QbW32ZLJECAAAECuxdo53e7gd13AQACBAgQILC+QDu/2w2sv82WSIAAAQIEdi/Qzu92A7vvAgAECBAgQGB9gXZ+txtYf5stkQABAgQI7F6gnd/tBnbfBQAIECBAgMD6Au38bjew/jZbIgECBAgQ2L1AO7/bDey+CwAQIECAAIH1Bdr53W5g/W22RAIECBAgsHuBdn63G9h9FwAgQIAAAQLrC7Tzu93A+ttsiQQIECBAYPcC7fxuN7D7LgBAgAABAnMFPl5Vz1fVq1X1elW9VVX3qur+w3/5f36Xv+U5eW7mMVW187vdgF4gQIAAAQJHCHymql6sqjer6u91fJBlnsz77apKW3ud2vndbmCv8rabAAECBI4S+GRV/bCq/jYj9J+WVWkrbabtvU1PM7nr7/sfIexN3PYSIECAwFECz1TVd6vqTwsG//WQS9tZRpa1l+m6wbE/GwDspVJsJwECBM4g8Lmq+vUJg/966GVZWeYepuvbfuzPBgB7qBLbSIAAgTMIfPnBu/I/rhj+UwBmmVn21qdpe+c+GgBsvUJsHwECBM4g8M2q+ucZwn8Kwyw767DladrWuY8GAFuuDttGgACBMwgkeOeG0tLzfeMM27/WIrtW7U5aa0MthwABAgQuXyAfvZ/znf/1UPxHVX3p8tlmreH1bT32ZwOAWexmIkCAAIHrAjn47hzf+R8Kvt9X1Wevr+wGfj603Yf+bgCwgSKwCQQIEDi3QE6/W/No/0Phdv3vv6qqj5wbaeHlX9/GY382AFi4QzRHgACBPQrkHPxjA2jt539rYx3T9Wt32MY8bQ4BAgQIHCmQq/Cd8iI/3aCb5v/dg/sJfOzIbbvkp0/bNffRAOCSe9e6ESBAYACBXIp3bgitPd8PBvC86yp27dqddtcV9TwCBAgQ2J5Absaz5LX9u6F2aP6/VtWnN9INh7b10N8NADZSCDaDAAEC5xDIHfkOBc2l/X0rFwjqurY77hwF11lmRqv/U1U/q6r/q6r3/GNwxhpIDaYWU5N7vq1p5zVt3vMK5La83SBae/6fn5dssaV33dodt9iWrNDQf1XVnwcs1m4nm3+MHVRqMzVqIjCKwMer6u8D7lPzlcVHR0G+ZT27+/bdDAB+OmCRdjvX/GME//V+Sq2aCIwg8PzA+9WvjwB8YB2v7zuO/XkXA4C8qzoWxvOZnbMGfBJwYM/nzxch8OrA+9as++hTdx/VDsZLB8z3qj72F+bdF8ra86dmHRNw6XsX6/f6wAOArPvoU3e/tPkBwH8PXKDdzjX/2AOf1K6JwCULvDXw/jXrPvrU3cdvfgDwk4ELtNu55h97AJDaNRG4ZIF7A+9fs+6jT919/OYHAP87cIF2O9f8Yw8AUrsmApcscH/g/WvWffSpu483ABi4gLudb/7LHiAYAIy+e97++hsAnLePu/vwzQ8AfAVw2SHXLeAtz+8rgPPuXC39sICvAA4bnfIZ3f3f5gcADgI0AOi+SM41v4MAT7nr1PYSAg4CXEJxfhvdfdPmBwBOAzQA6L5IzjG/0wDn7xTNuZ6A0wDXs75pSd190+YHAEFzISCDgO4LZe35XQjopt2d312agAsBnbdHuvulXQwA0kUuBWwQ0H2xrDW/SwGfd6dq6XcXcCngu1ud4pndfdJuBgDBz7sqVwU0EOi+aE41f2rTO/9T7Ca1eSoBNwM6lezd2u3ui3Y1AAhpjgnIwVU5wjqnWf3WPwZnrIHUYGoxNenSv3fb6XnWZQm4HfD5+sMA4Hz2lkyAAIHdC3x7wGupfHMjvWYAsJGOtBkECBAYUSCfXP1toEHAX6vq0yNC37DOBgA3oPgVAQIECKwn8MOBBgA/WI/l5EsyADg5sQUQIECAwG0Cn6yqPw0wCPhdVX3stg0Z7G8GAIN1mNUlQIDAFgW+O8AA4FsbgzcA2FiH2hwCBAiMKPBMVf36ggcBv6qqj4wIe8s6GwDcguNPBAgQILCewOeq6o8XOAj4fVV9dj2G1ZZkALAatQURIECAwCGBL1fVPy9oEPCPqvrSoZUe9O8GAIN2nNUmQIDAVgVynn03nJaa/xtbRV7AuN1JG7a1aQQIECAwUyDBm3ffSwX5se1k2VsO/3TLsSbXn99vYGZxmI0AAQIEti2Qj97z/fv14Dn1z1nmVj/2f7Riuo7tjnl0ZfyfAAECBAg8KpCD73IEfjes7jp/lrXFA/4eNZ3+f1eTpz2v3SnTingkQIAAAQI3CeT0u5yDnwvxPC2Mur9P21nG1k71u8lz+l3XrN0Z04p4JECAAAECtwnkKny5FG+ux98Nr2n+tJU2t3SFv9sMH/3bZDD3sd0Jj66M/xMgQIAAgUMCuRlPzhT4+cwbCeXmQ5k3bWzlxj6HzG76+9zgn+YzALhJ1e8IECBAYBWBj1bV1x+8g3+1ql6vqreq6l5V3X/4L//P7/K3PCfPzTym/qcoBgCqiAABAgQIDCgwvZOf+2gAMGCnW2UCBAgQIDA3+Kf5DADUEAECBAgQGFBgCvK5jwYAA3a6VSZAgAABAnODf5rPAEANESBAgACBAQWmIJ/7aAAwYKdbZQIECBAgMDf4p/kMANQQAQIECBAYUGAK8rmPBgADdrpVJkCAAAECc4N/ms8AQA0RIECAAIEBBaYgn/toADBgp1tlAgQIECAwN/in+QwA1BABAgQIEBhQYAryuY8GAAN2ulUmQIAAAQJzg3+azwBADREgQIAAgQEFpiCf+2gAMGCnW2UCBAgQIDA3+Kf5DADUEAECBAgQGFBgCvK5jwYAA3a6VSZAgAABAnODf5rPAEANESBAgACBAQWmIJ/7aAAwYKdbZQIECBAgMDf4p/kMANQQAQIECBAYUGAK8rmPBgADdrpVJkCAAAECc4N/ms8AQA0RIECAAIEBBaYgn/toADBgp1tlAgQIECAwN/in+QwA1BABAgQIEBhQYAryuY8GAAN2ulUmQIAAAQJzg3+ar+5XtQYBz+oDAgQIECBAYFWBZO8U5HMek/11r9nIF1fdZAsjQIAAAQIEkr1zgn+aJ9lfbzcb+Zp+IECAAAECBFYVSPZOYT7nMdlfbzQb+d6qm2xhBAgQIECAQLJ3TvBP8yT767VmI7/QDwQIECBAgMCqAsneKcznPCb76+VmI/+qqk+tutkWRoAAAQIE9iuQzE32zgn+aZ5kf73QbCSNfX+//WDLCRAgQIDAqgLJ3CnI5z4m+yunEnRHEu89bGdVAQsjQIAAAQI7E0hmJ3PnBn/mS+ZfncLf/S4hDf5oZ51gcwkQIECAwNoCydpO+Gfex47de2mBBv9dVV9ZW8LyCBAgQIDATgSSscna7gAgmX81PVdV7y/QaD6W+PxVq/5DgAABAgQILCGQbO1+9J+BQ7I+mf/Y9M4CA4A0/q5BwGOufiBAgAABAh2BhH+ytfvOP/Mn65+YXlmo8SwgoxRfBzxB7BcECBAgQOAogWTpEu/8p8FDsv6J6RNV9YcFBwH5niIHK1wdafjEEv2CAAECBAgQuEkg2ZkMXeI7/yn8k/HJ+hun7yw4AJgWmJFLzll0saAbyf2SAAECBAhcCSQrk5lLvuuf8jgZ/9Tpmar6zQkGAVl4zjvMqQe5fnFuYpA7Gfl04Kld4Q8ECBAgsHGBZGCyMJmYbExGdq/LM4X99cdkezL+1un5Ew0Arq+Mn5c5oIMjRzWgBtSAGjhUA8n2O02/NAhY5GjLQx3i7160akANqAE1cOoaSKbfefpCVf3FIMAgQA2oATWgBtTA0DWQLE+mHzV9deGjD089wtG+UbQaUANqQA2ogQ9rIGcQJMtnTS8a+Q098vNC+PCFwIKFGlADe6uBZHhr+rFBgEGAGlADakANqIGhaiDZ3Z5y2sCbOn6ojt/bKNf2emenBtSAGviwBpLZB0/5u+voIA35JOBDXIXGQg2oATWgBi6xBpLVi4X/o4OEfJ+w5GUJLxHPOnlRqwE1oAbUwGg1kGxuf+f/aODf9P8cUegUQS+O0V4c1lfNqgE1sNUaSCbPPtr/pqC/7Xc5p9DFgryYtvpisl1qWw2ogVFqIFl89Hn+twX8Xf+WSwue6t4Bo+BbTzsKNaAG1IAaWLsGkr13vrzvXUP92OflYIPcYWjJWwmvDWl5XrxqQA2oATUwQg0ka5O5JznQ79gBwPT83GP4lap6p6red9qg0wbVgBpQA2pADSxSA8nUZGsyNll70dNzD+5l/NKJb204wkjNOnpHoQbUgBpQA3NqILcFzu2Bk6XJ1CGn3O/4hap6+cHI5bWqeuPBvY/frqp7VXXf6HCR0eGc4jKPnZIaUANq4Lw1kAxMFiYTk43JyGRlMjPZaSJAgAABAgQIECBAgAABAgQIECBAgAABAgQIECBAgAABAgQIECBAgAABAgQIECBAgAABAgQIECBAgAABAgQIECBAgAABAgQIECBAgAABAgQIECBAgAABAgQIECBAgAABAgQIECBAgAABAgQIECBAgAABAgQIECBAgAABAgQIECBAgAABAgQIECBAgAABAgQ2KPBsVb1QVS9X1WtV9UZVvV1V96rqflX9xz8GakANqAE1sMMaSAYmC5OJycZkZLIymZnsHHJ6rqpeqqpfVNW/dtipBjUGdmpADagBNdCpgWRnMjRZmky96OkTVfVKVb1TVe8LfaN5NaAG1IAaUAOL1EAyNdmajE3WXsz0TFV9p6r+oKMX6ejOiNG83nGoATWgBrZdA8naZG6y96zT81X1G8Ev+NWAGlADakANrFoDyd5k8OrTF6rqlzp71c42qt/2qF7/6l81oAbm1ECyOJm8yvTVqvqL8Bf+akANqAE1oAYuogaSycnmk04vVtW/dfhFdPickaJ5vMNQA2pADWyzBpLNyejFpxxs8GPBL/jVgBpQA2pADVx0DSSrFztAMA29qcMvusON6Lc5otev+lUNqIE5NZDMXmQQ4J2/ApxTgOZRN2pADaiB89VAsrs15fsEHchADagBNaAG1MB4NTD7mIAcUeiAv/E63ItUn6kBNaAG1EBqIBl+9NkBOafQqX4KyE5EDagBNaAGxq6BZPlR1wlwkZ+xO9wLVv+pATWgBtTAVAPJ9DtNubTgNJNHFmpADagBNaAGxq+Bg5cNzmkDp7q2/3Rrw+89uPfx16rqiyPf7/hOQylPIkCAAAECTxd49mEWJhOTjbn9b7LyFAOuZPutpwbmDkNLL/i9qvp+VX3q6Qb+QoAAAQIECDzMymRmsnPpPE7G3zjlHsNL3tI3Rx/+yLv8G639kgABAgQI3CaQTweSoUuejZeMT9Y/Mb2y4GgjI5evPLEEvyBAgAABAgSOEUiWLvlpQLL+iemdhQYA71bV559o3S8IECBAgACBOQLJ1GTrEl8JJOsfm56rqvcXaDyjFOH/GK0fCBAgQIBAWyDZusQnAcn6ZP7V9NIC4Z/vKXzsf0XqPwQIECBAYFGBZOwSxwQk86+mnHrQ/WghByuYCBAgQIAAgdMJJGu7eZ3M/2DKkYbd8w7zsUTaMREgQIAAAQKnE0jWdr8KSOZ/kNkvLDCayDmLJgIECBAgQOD0Asnc7qcAyf56udlQRhIu8nP6DrcEAgQIECAQgWRu95P7ZH+91hwAXH2XoF8IECBAgACBVQS6x+4l++uN5gAg1y82ESBAgAABAusJJHs7XwMk++vtZiO5iYGJAAECBAgQWE8g2dsZACT7616zkdzVz0SAAAECBAisJ5Ds7QwAkv11v9mI0//W63BLIkCAAAECEUj2dgYAyf5WA1m4iQABAgQIEFhfoDMA+CC/2w2sv82WSIAAAQIEdi/Qzu92A7vvAgAECBAgQGB9gXZ+txtYf5stkQABAgQI7F6gnd/tBnbfBQAIECBAgMD6Au38bjew/jZbIgECBAgQ2L1AO7/bDey+CwAQIECAAIH1Bdr53W5g/W22RAIECBAgsHuBdn63G9h9FwAgQIAAAQLrC7Tzu93A+ttsiQQIECBAYPcC7fxuN7D7LgBAgAABAgTWF2jnd7uB9bfZEgkQIECAwO4F2vndbmD3XQCAAAECBAisL9DO73YD62+zJRIgQIAAgd0LtPO73cDuuwAAAQIECBBYX6Cd3+0G1t9mSyRAgAABArsXaOd3u4HddwEAAgQIECCwvkA7v9sNrL/NlkiAAAECBHYv0M7vdgO77wIABAgQIEBgfYF2frcbWH+bLZEAAQIECOxeoJ3f7QZ23wUACBAgQIDA+gLt/G43sP42WyIBAgQIENi9QDu/2w3svgsAECBAgACB9QXa+d1uYP1ttkQCBAgQILB7gXZ+txvYfRcAIECAAIG5Ah+vquer6tWqer2q3qqqe1V1/+G//D+/y9/ynDw385iq2vndbkAvECBAgACBIwQ+U1UvVtWbVfX3Oj7IMk/m/XZVpa29Tu38bjewV3nbTYAAAQJHCXyyqn5YVX+bEfpPy6q0lTbT9t6mp5nc9ff9jxD2Jm57CRAgQOAogWeq6rtV9acFg/96yKXtLCPL2st03eDYnw0A9lIptpMAAQJnEPhcVf36hMF/PfSyrCxzD9P1bT/2ZwOAPVSJbSRAgMAZBL784F35H1cM/ykAs8wse+vTtL1zHw0Atl4hto8AAQJnEPhmVf3zDOE/hWGWnXXY8jRt69xHA4AtV4dtI0CAwBkEErxzQ2np+b5xhu1fa5Fdq3YnrbWhlkOAAAECly+Qj97P+c7/eij+o6q+dPlss9bw+rYe+7MBwCx2MxEgQIDAdYEcfHeO7/wPBd/vq+qz11d2Az8f2u5DfzcA2EAR2AQCBAicWyCn3615tP+hcLv+919V1UfOjbTw8q9v47E/GwAs3CGaI0CAwB4Fcg7+sQG09vO/tbGO6fq1O2xjnjaHAAECBI4UyFX4TnmRn27QTfP/7sH9BD525LZd8tOn7Zr7aABwyb1r3QgQIDCAQC7FOzeE1p7vBwN43nUVu3btTrvrinoeAQIECGxPIDfjWfLa/t1QOzT/X6vq0xvphkPbeujvBgAbKQSbQYAAgXMI5I58h4Lm0v6+lQsEdV3bHXeOgussM6PV/6mqn1XV/1XVe/4xOGMNpAZTi6nJPd/WtPOaNu95BXJb3m4QrT3/z89LttjSu27tjltsS1Zo6L+q6s8DFmu3k80/xg4qtZkaNREYReDjVfX3Afep+crio6Mg37Ke3X37bgYAPx2wSLuda/4xgv96P6VWTQRGEHh+4P3q10cAPrCO1/cdx/68iwFA3lUdC+P5zM5ZAz4JOLDn8+eLEHh14H1r1n30qbuPagfjpQPme1Uf+wvz7gtl7flTs44JuPS9i/V7feABQNZ99Km7X9r8AOC/By7Qbueaf+yBT2rXROCSBd4aeP+adR996u7jNz8A+MnABdrtXPOPPQBI7ZoIXLLAvYH3r1n30afuPn7zA4D/HbhAu51r/rEHAKldE4FLFrg/8P416z761N3HGwAMXMDdzjf/ZQ8QDABG3z1vf/0NAM7bx919+OYHAL4CuOyQ6xbwluf3FcB5d66WfljAVwCHjU75jO7+b/MDAAcBGgB0XyTnmt9BgKfcdWp7CQEHAS6hOL+N7r5p8wMApwEaAHRfJOeY32mA83eK5lxPwGmA61nftKTuvmnzA4CguRCQQUD3hbL2/C4EdNPuzu8uTcCFgM7bI9390i4GAOkilwI2COi+WNaa36WAz7tTtfS7C7gU8N2tTvHM7j5pNwOA4OddlasCGgh0XzSnmj+16Z3/KXaT2jyVgJsBnUr2bu1290W7GgCENMcE5OCqHGGd06x+6x+DM9ZAajC1mJp06d+77fQ867IE3A74fP1hAHA+e0smQIDA7gW+PeC1VL65kV4zANhIR9oMAgQIjCiQT67+NtAg4K9V9ekRoW9YZwOAG1D8igABAgTWE/jhQAOAH6zHcvIlGQCcnNgCCBAgQOA2gU9W1Z8GGAT8rqo+dtuGDPY3A4DBOszqEiBAYIsC3x1gAPCtjcEbAGysQ20OAQIERhR4pqp+fcGDgF9V1UdGhL1lnQ0AbsHxJwIECBBYT+BzVfXHCxwE/L6qPrsew2pLMgBYjdqCCBAgQOCQwJer6p8XNAj4R1V96dBKD/p3A4BBO85qEyBAYKsCOc++G05Lzf+NrSIvYNzupA3b2jQCBAgQmCmQ4M2776WC/Nh2suwth3+65ViT68/vNzCzOMxGgAABAtsWyEfv+f79evCc+ucsc6sf+z9aMV3Hdsc8ujL+T4AAAQIEHhXIwXc5Ar8bVnedP8va4gF/j5pO/7+rydOe1+6UaUU8EiBAgACBmwRy+l3Owc+FeJ4WRt3fp+0sY2un+t3kOf2ua9bujGlFPBIgQIAAgdsEchW+XIo31+Pvhtc0f9pKm1u6wt9tho/+bTKY+9juhEdXxv8JECBAgMAhgdyMJ2cK/HzmjYRy86HMmza2cmOfQ2Y3/X1u8E/zGQDcpOp3BAgQILCKwEer6usP3sG/WlWvV9VbVXWvqu4//Jf/53f5W56T52YeU/9TFAMAVUSAAAECBAYUmN7Jz300ABiw060yAQIECBCYG/zTfAYAaogAAQIECAwoMAX53EcDgAE73SoTIECAAIG5wT/NZwCghggQIECAwIACU5DPfTQAGLDTrTIBAgQIEJgb/NN8BgBqiAABAgQIDCgwBfncRwOAATvdKhMgQIAAgbnBP81nAKCGCBAgQIDAgAJTkM99NAAYsNOtMgECBAgQmBv803wGAGqIAAECBAgMKDAF+dxHA4ABO90qEyBAgACBucE/zWcAoIYIECBAgMCAAlOQz300ABiw060yAQIECBCYG/zTfAYAaogAAQIECAwoMAX53EcDgAE73SoTIECAAIG5wT/NZwCghggQIECAwIACU5DPfTQAGLDTrTIBAgQIEJgb/NN8BgBqiAABAgQIDCgwBfncRwOAATvdKhMgQIAAgbnBP81nAKCGCBAgQIDAgAJTkM99NAAYsNOtMgECBAgQmBv803wGAGqIAAECBAgMKDAF+dxHA4ABO90qEyBAgACBucE/zVf3q1qDgGf1AQECBAgQILCqQLJ3CvI5j8n+utds5IurbrKFESBAgAABAsneOcE/zZPsr7ebjXxNPxAgQIAAAQKrCiR7pzCf85jsrzeajXxv1U22MAIECBAgQCDZOyf4p3mS/fVas5Ff6AcCBAgQIEBgVYFk7xTmcx6T/fVys5F/VdWnVt1sCyNAgAABAvsVSOYme+cE/zRPsr9eaDaSxr6/336w5QQIECBAYFWBZO4U5HMfk/2VUwm6I4n3HrazqoCBCRbVAAAU8ElEQVSFESBAgACBnQkks5O5c4M/8yXzr07h736XkAZ/tLNOsLkECBAgQGBtgWRtJ/wz72PH7r20QIP/rqqvrC1heQQIECBAYCcCydhkbXcAkMy/mp6rqvcXaDQfS3z+qlX/IUCAAAECBJYQSLZ2P/rPwCFZn8x/bHpngQFAGn/XIOAxVz8QIECAAIGOQMI/2dp955/5k/VPTK8s1HgWkFGKrwOeIPYLAgQIECBwlECydIl3/tPgIVn/xPSJqvrDgoOAfE+RgxWujjR8Yol+QYAAAQIECNwkkOxMhi7xnf8U/sn4ZP2N03cWHABMC8zIJecsuljQjeR+SYAAAQIErgSSlcnMJd/1T3mcjH/q9ExV/eYEg4AsPOcd5tSDXL84NzHInYx8OvDUrvAHAgQIENi4QDIwWZhMTDYmI7vX5ZnC/vpjsj0Zf+v0/IkGANdXxs/LHNDBkaMaUANqQA0cqoFk+52mXxoELHK05aEO8XcvWjWgBtSAGjh1DSTT7zx9oar+YhBgEKAG1IAaUANqYOgaSJYn04+avrrw0YenHuFo3yhaDagBNaAG1MCHNZAzCJLls6YXjfyGHvl5IXz4QmDBQg2ogb3VQDK8Nf3YIMAgQA2oATWgBtTAUDWQ7G5POW3gTR0/VMfvbZRre72zUwNqQA18WAPJ7IOn/N11dJCGfBLwIa5CY6EG1IAaUAOXWAPJ6sXC/9FBQr5PWPKyhJeIZ528qNWAGlADamC0Gkg2t7/zfzTwb/p/jih0iqAXx2gvDuurZtWAGthqDSSTZx/tf1PQ3/a7nFPoYkFeTFt9Mdkuta0G1MAoNZAsPvo8/9sC/q5/y6UFT3XvgFHwracdhRpQA2pADaxdA8neO1/e966hfuzzcrBB7jC05K2E14a0PC9eNaAG1IAaGKEGkrXJ3JMc6HfsAGB6fu4x/EpVvVNV7ztt0GmDakANqAE1oAYWqYFkarI1GZusvejpuQf3Mn7pxLc2HGGkZh29o1ADakANqIE5NZDbAuf2wMnSZOqQU+53/EJVvfxg5PJaVb3x4N7Hb1fVvaq6b3S4yOhwTnGZx05JDagBNXDeGkgGJguTicnGZGSyMpmZ7DQRIECAAAECBAgQIECAAAECBAgQIECAAAECBAgQIECAAAECBAgQIECAAAECBAgQIECAAAECBAgQIECAAAECBAgQIECAAAECBAgQIECAAAECBAgQIECAAAECBAgQIECAAAECBAgQIECAAAECBAgQIECAAAECBAgQIECAAAECBAgQIECAAAECBAgQIECAAAECGxR4tqpeqKqXq+q1qnqjqt6uqntVdb+q/uMfAzWgBtSAGthhDSQDk4XJxGRjMjJZmcxMdg45PVdVL1XVL6rqXzvsVIMaAzs1oAbUgBro1ECyMxmaLE2mXvT0iap6pareqar3hb7RvBpQA2pADaiBRWogmZpsTcYmay9meqaqvlNVf9DRi3R0Z8RoXu841IAaUAPbroFkbTI32XvW6fmq+o3gF/xqQA2oATWgBlatgWRvMnj16QtV9UudvWpnG9Vve1Svf/WvGlADc2ogWZxMXmX6alX9RfgLfzWgBtSAGlADF1EDyeRk80mnF6vq3zr8Ijp8zkjRPN5hqAE1oAa2WQPJ5mT04lMONvix4Bf8akANqAE1oAYuugaS1YsdIJiG3tThF93hRvTbHNHrV/2qBtTAnBpIZi8yCPDOXwHOKUDzqBs1oAbUwPlqINndmvJ9gg5koAbUgBpQA2pgvBqYfUxAjih0wN94He5Fqs/UgBpQA2ogNZAMP/rsgJxT6FQ/BWQnogbUgBpQA2PXQLL8qOsEuMjP2B3uBav/1IAaUANqYKqBZPqdplxacJrJIws1oAbUgBpQA+PXwMHLBue0gVNd23+6teH3Htz7+GtV9cWR73d8p6GUJxEgQIAAgacLPPswC5OJycbc/jdZeYoBV7L91lMDc4ehpRf8XlV9v6o+9XQDfyFAgAABAgQeZmUyM9m5dB4n42+cco/hJW/pm6MPf+Rd/o3WfkmAAAECBG4TyKcDydAlz8ZLxifrn5heWXC0kZHLV55Ygl8QIECAAAECxwgkS5f8NCBZ/8T0zkIDgHer6vNPtO4XBAgQIECAwByBZGqydYmvBJL1j03PVdX7CzSeUYrwf4zWDwQIECBAoC2QbF3ik4BkfTL/anppgfDP9xQ+9r8i9R8CBAgQILCoQDJ2iWMCkvlXU0496H60kIMVTAQIECBAgMDpBJK13bxO5n8w5UjD7nmH+Vgi7ZgIECBAgACB0wkka7tfBSTzP8jsFxYYTeScRRMBAgQIECBweoFkbvdTgGR/vdxsKCMJF/k5fYdbAgECBAgQiEAyt/vJfbK/XmsOAK6+S9AvBAgQIECAwCoC3WP3kv31RnMAkOsXmwgQIECAAIH1BJK9na8Bkv31drOR3MTARIAAAQIECKwnkOztDACS/XWv2Uju6mciQIAAAQIE1hNI9nYGAMn+ut9sxOl/63W4JREgQIAAgQgkezsDgGR/q4Es3ESAAAECBAisL9AZAHyQ3+0G1t9mSyRAgAABArsXaOd3u4HddwEAAgQIECCwvkA7v9sNrL/NlkiAAAECBHYv0M7vdgO77wIABAgQIEBgfYF2frcbWH+bLZEAAQIECOxeoJ3f7QZ23wUACBAgQIDA+gLt/G43sP42WyIBAgQIENi9QDu/2w3svgsAECBAgACB9QXa+d1uYP1ttkQCBAgQILB7gXZ+txvYfRcAIECAAAEC6wu087vdwPrbbIkECBAgQGD3Au38bjew+y4AQIAAAQIE1hdo53e7gfW32RIJECBAgMDuBdr53W5g910AgAABAgQIrC/Qzu92A+tvsyUSIECAAIHdC7Tzu93A7rsAAAECBAgQWF+gnd/tBtbfZkskQIAAAQK7F2jnd7uB3XcBAAIECBAgsL5AO7/bDay/zZZIgAABAgR2L9DO73YDu+8CAAQIECBAYH2Bdn63G1h/my2RAAECBAjsXqCd3+0Gdt8FAAgQIECAwPoC7fxuN7D+NlsiAQIECBDYvUA7v9sN7L4LABAgQIDAXIGPV9XzVfVqVb1eVW9V1b2quv/wX/6f3+VveU6em3lMVe38bjegFwgQIECAwBECn6mqF6vqzar6ex0fZJkn8367qtLWXqd2frcb2Ku87SZAgACBowQ+WVU/rKq/zQj9p2VV2kqbaXtv09NM7vr7/kcIexO3vQQIECBwlMAzVfXdqvrTgsF/PeTSdpaRZe1lum5w7M8GAHupFNtJgACBMwh8rqp+fcLgvx56WVaWuYfp+rYf+7MBwB6qxDYSIEDgDAJffvCu/I8rhv8UgFlmlr31adreuY8GAFuvENtHgACBMwh8s6r+eYbwn8Iwy846bHmatnXuowHAlqvDthEgQOAMAgneuaG09HzfOMP2r7XIrlW7k9baUMshQIAAgcsXyEfv53znfz0U/1FVX7p8tllreH1bj/3ZAGAWu5kIECBA4LpADr47x3f+h4Lv91X12esru4GfD233ob8bAGygCGwCAQIEzi2Q0+/WPNr/ULhd//uvquoj50ZaePnXt/HYnw0AFu4QzREgQGCPAjkH/9gAWvv539pYx3T92h22MU+bQ4AAAQJHCuQqfKe8yE836Kb5f/fgfgIfO3LbLvnp03bNfTQAuOTetW4ECBAYQCCX4p0bQmvP94MBPO+6il27dqfddUU9jwABAgS2J5Cb8Sx5bf9uqB2a/69V9emNdMOhbT30dwOAjRSCzSBAgMA5BHJHvkNBc2l/38oFgrqu7Y47R8F1lpnR6v9U1c+q6v+q6j3/GJyxBlKDqcXU5J5va9p5TZv3vAK5LW83iNae/+fnJVts6V23dscttiUrNPRfVfXnAYu128nmH2MHldpMjZoIjCLw8ar6+4D71Hxl8dFRkG9Zz+6+fTcDgJ8OWKTdzjX/GMF/vZ9SqyYCIwg8P/B+9esjAB9Yx+v7jmN/3sUAIO+qjoXxfGbnrAGfBBzY8/nzRQi8OvC+Nes++tTdR7WD8dIB872qj/2FefeFsvb8qVnHBFz63sX6vT7wACDrPvrU3S9tfgDw3wMXaLdzzT/2wCe1ayJwyQJvDbx/zbqPPnX38ZsfAPxk4ALtdq75xx4ApHZNBC5Z4N7A+9es++hTdx+/+QHA/w5coN3ONf/YA4DUronAJQvcH3j/mnUfferu4w0ABi7gbueb/7IHCAYAo++et7/+BgDn7ePuPnzzAwBfAVx2yHULeMvz+wrgvDtXSz8s4CuAw0anfEZ3/7f5AYCDAA0Aui+Sc83vIMBT7jq1vYSAgwCXUJzfRnfftPkBgNMADQC6L5JzzO80wPk7RXOuJ+A0wPWsb1pSd9+0+QFA0FwIyCCg+0JZe34XArppd+d3lybgQkDn7ZHufmkXA4B0kUsBGwR0Xyxrze9SwOfdqVr63QVcCvjuVqd4ZneftJsBQPDzrspVAQ0Eui+aU82f2vTO/xS7SW2eSsDNgE4le7d2u/uiXQ0AQppjAnJwVY6wzmlWv/WPwRlrIDWYWkxNuvTv3XZ6nnVZAm4HfL7+MAA4n70lEyBAYPcC3x7wWirf3EivGQBspCNtBgECBEYUyCdXfxtoEPDXqvr0iNA3rLMBwA0ofkWAAAEC6wn8cKABwA/WYzn5kgwATk5sAQQIECBwm8Anq+pPAwwCfldVH7ttQwb7mwHAYB1mdQkQILBFge8OMAD41sbgDQA21qE2hwABAiMKPFNVv77gQcCvquojI8Less4GALfg+BMBAgQIrCfwuar64wUOAn5fVZ9dj2G1JRkArEZtQQQIECBwSODLVfXPCxoE/KOqvnRopQf9uwHAoB1ntQkQILBVgZxn3w2npeb/xlaRFzBud9KGbW0aAQIECMwUSPDm3fdSQX5sO1n2lsM/3XKsyfXn9xuYWRxmI0CAAIFtC+Sj93z/fj14Tv1zlrnVj/0frZiuY7tjHl0Z/ydAgAABAo8K5OC7HIHfDau7zp9lbfGAv0dNp//f1eRpz2t3yrQiHgkQIECAwE0COf0u5+DnQjxPC6Pu79N2lrG1U/1u8px+1zVrd8a0Ih4JECBAgMBtArkKXy7Fm+vxd8Nrmj9tpc0tXeHvNsNH/zYZzH1sd8KjK+P/BAgQIEDgkEBuxpMzBX4+80ZCuflQ5k0bW7mxzyGzm/4+N/in+QwAblL1OwIECBBYReCjVfX1B+/gX62q16vqraq6V1X3H/7L//O7/C3PyXMzj6n/KYoBgCoiQIAAAQIDCkzv5Oc+GgAM2OlWmQABAgQIzA3+aT4DADVEgAABAgQGFJiCfO6jAcCAnW6VCRAgQIDA3OCf5jMAUEMECBAgQGBAgSnI5z4aAAzY6VaZAAECBAjMDf5pPgMANUSAAAECBAYUmIJ87qMBwICdbpUJECBAgMDc4J/mMwBQQwQIECBAYECBKcjnPhoADNjpVpkAAQIECMwN/mk+AwA1RIAAAQIEBhSYgnzuowHAgJ1ulQkQIECAwNzgn+YzAFBDBAgQIEBgQIEpyOc+GgAM2OlWmQABAgQIzA3+aT4DADVEgAABAgQGFJiCfO6jAcCAnW6VCRAgQIDA3OCf5jMAUEMECBAgQGBAgSnI5z4aAAzY6VaZAAECBAjMDf5pPgMANUSAAAECBAYUmIJ87qMBwICdbpUJECBAgMDc4J/mMwBQQwQIECBAYECBKcjnPhoADNjpVpkAAQIECMwN/mk+AwA1RIAAAQIEBhSYgnzuowHAgJ1ulQkQIECAwNzgn+ar+1WtQcCz+oAAAQIECBBYVSDZOwX5nMdkf91rNvLFVTfZwggQIECAAIFk75zgn+ZJ9tfbzUa+ph8IECBAgACBVQWSvVOYz3lM9tcbzUa+t+omWxgBAgQIECCQ7J0T/NM8yf56rdnIL/QDAQIECBAgsKpAsncK8zmPyf56udnIv6rqU6tutoURIECAAIH9CiRzk71zgn+aJ9lfLzQbSWPf328/2HICBAgQILCqQDJ3CvK5j8n+yqkE3ZHEew/bWVXAwggQIECAwM4EktnJ3LnBn/mS+Ven8He/S0iDP9pZJ9hcAgQIECCwtkCythP+mfexY/deWqDBf1fVV9aWsDwCBAgQILATgWRssrY7AEjmX03PVdX7CzSajyU+f9Wq/xAgQIAAAQJLCCRbux/9Z+CQrE/mPza9s8AAII2/axDwmKsfCBAgQIBARyDhn2ztvvPP/Mn6J6ZXFmo8C8goxdcBTxD7BQECBAgQOEogWbrEO/9p8JCsf2L6RFX9YcFBQL6nyMEKV0caPrFEvyBAgAABAgRuEkh2JkOX+M5/Cv9kfLL+xuk7Cw4ApgVm5JJzFl0s6EZyvyRAgAABAlcCycpk5pLv+qc8TsY/dXqmqn5zgkFAFp7zDnPqQa5fnJsY5E5GPh14alf4AwECBAhsXCAZmCxMJiYbk5Hd6/JMYX/9MdmejL91ev5EA4DrK+PnZQ7o4MhRDagBNaAGDtVAsv1O0y8NAhY52vJQh/i7F60aUANqQA2cugaS6XeevlBVfzEIMAhQA2pADagBNTB0DSTLk+lHTV9d+OjDU49wtG8UrQbUgBpQA2rgwxrIGQTJ8lnTi0Z+Q4/8vBA+fCGwYKEG1MDeaiAZ3pp+bBBgEKAG1IAaUANqYKgaSHa3p5w28KaOH6rj9zbKtb3e2akBNaAGPqyBZPbBU/7uOjpIQz4J+BBXobFQA2pADaiBS6yBZPVi4f/oICHfJyx5WcJLxLNOXtRqQA2oATUwWg0km9vf+T8a+Df9P0cUOkXQi2O0F4f1VbNqQA1stQaSybOP9r8p6G/7Xc4pdLEgL6atvphsl9pWA2pglBpIFh99nv9tAX/Xv+XSgqe6d8Ao+NbTjkINqAE1oAbWroFk750v73vXUD/2eTnYIHcYWvJWwmtDWp4XrxpQA2pADYxQA8naZO5JDvQ7dgAwPT/3GH6lqt6pqvedNui0QTWgBtSAGlADi9RAMjXZmoxN1l709NyDexm/dOJbG44wUrOO3lGoATWgBtTAnBrIbYFze+BkaTJ1yCn3O36hql5+MHJ5rareeHDv47er6l5V3Tc6XGR0OKe4zGOnpAbUgBo4bw0kA5OFycRkYzIyWZnMTHaedPp/+k/2ybNdZyEAAAAASUVORK5CYII=;" vertex="1" parent="1">
          <mxGeometry x="710" y="240" width="92" height="92" as="geometry" />
        </mxCell>
        <mxCell id="F3jdzz_wUt6CEXbVW0qb-2" value="&lt;font style=&quot;font-size: 24px;&quot;&gt;HTTP Server&lt;/font&gt;" style="text;html=1;align=center;verticalAlign=middle;resizable=0;points=[];autosize=1;strokeColor=none;fillColor=none;" vertex="1" parent="1">
          <mxGeometry x="676" y="340" width="160" height="40" as="geometry" />
        </mxCell>
        <mxCell id="F3jdzz_wUt6CEXbVW0qb-4" value="" style="shape=image;verticalLabelPosition=bottom;labelBackgroundColor=default;verticalAlign=top;aspect=fixed;imageAspect=0;image=data:image/png,iVBORw0KGgoAAAANSUhEUgAAAgAAAAIACAYAAAD0eNT6AAAAAXNSR0IArs4c6QAAIABJREFUeAHtnQeYbUWVtpeKiigGUDGgoyImzGF+syhmMeeIOKNgVsyOAQcUFR0Do2JAxOyIjvMrJgwYMWBCEQOgiBhGUQQBA+j059N9b3Nv33PrO2eHVbXfep5+aG7vXbXWu9au+s4+FSIoEIAABCAAAQhAAAIQgAAEIAABCEAAAhCAAAQgAAEIQAACEIAABCAAAQhAAAIQgAAEIAABCEAAAhCAAAQgAAEIQAACEIAABCAAAQhAAAIQgAAEIAABCEAAAhCAAAQgAAEIQAACEIAABCAAAQhAAAIQgAAEIAABCEAAAhCAAAQgAAEIQAACEIAABCAAAQhAAAIQgAAEIAABCEAAAhCAAAQgAAEIQAACEIAABCAAAQhAAAIQgAAEIAABCEAAAhCAAAQgAAEIQAACEIAABCAAAQhAAAIQgAAEIAABCEAAAhCAAAQgAAEIQAACEIAABCAAAQhAAAIQgAAEIAABCEAAAhCAAAQgAAEIQAACEIAABCAAAQhAAAIQgAAEIAABCEAAAhCAAAQgAAEIVETgohFx44i4R0Q8OCIeExHPiIhn8QMDcoAcIAc6zYEnRsSjIuL+EbFLRFwlIs5X0XiBqRUT2DIibreUcPtExGeWBvtfRMTf+YEBOUAOkAOj5cCfIuK7EfGuiHh0ROxQ8RiD6ckIbBURD4mIjy0p+bN4yEd7yBFaiE1ygBwozYGfRsQrIuK6ycYTzKmEwLUi4i0RcRqDPoM+OUAOkAPV5sB3IuJxEaE3uBQIzCRwvaXvld4eEWfzwFf7wJd+SuA6PlGSA9PJgV8v9fx7R8TFZo4A/HGSBC6zPPD/jYGfgZ8cIAfIgWZz4JcR8YiIOM8kRzqcPhcBzSDVzNJTeeCbfeD5lDedT3nEmliX5sBnI+Ka5xoN+J9JEbhURHycgZ+BnxwgB8iBSeaAJnY/eVKjHs7+g8DOLOOb5ANf+umA6/gkSQ5MJwcOZW7AdJTBbhHxVxQ/AoAcIAfIAXJgOQe+FxGXn84wOE1PtUMfE/2mo+z5FEesyQFyoDQHfhIRV5vm0Ni+1y8fQO1rV6rf8QMDcoAcIAc6z4HfD9CHa7ngTu0Ph9Py8NkdJ84fIuLDEfH0iLjz8p7UW0wLKd5CAAIQGIWA1vLrDBbt0vrqiNBmP12+2T0pIq4wimc02jkBHR7RRXKcERHvjIg7cQBF5zGiQghAAAKLELjs0s6te0XEtzv6sPf9iNh2EYO4d3wCN42IvyyYENoO+DURoc2CKBCAAAQgkJvALZff0JZ+97+p63ToG6cN5o71Jq27REToUIhNBXdz/663BtoWWPsFUCAAAQhAoC4Ct40IfZLfXF8/6+/Pr8tlrBUBbfN42AKB12zQm4MSAhCAAASqJqBDgDQBfN6vgXUujPaNoVRE4JELDP4fWnrlr7cHFAhAAAIQaIPAXZe2fT9lznHh+Ii4UBsY2vdCg7eWcsx6rbOpv70uIs7bPiI8hAAEIDA5Atr7/8Q5x4YXTY5WpQ6/Yc4Av7hSfzEbAhCAAATKCGh53wlzjBHa42XHsia4aiwCO8y5ze+BYxlMuxCAAAQgMCgBjRO/mkMEvGdQK2nMJvDmOYL6UZZ62Jy5AQIQgEDNBLRE/M/meKEJgWwVnDTq288R0J9HxCWT+oNZEIAABCDQHwFtHLSp+WCb+ve39mcONS9CYL85gnmHRRrkXghAAAIQqJaAlot/yhw3tLHcpav1uFHDNXP/Z2Yg+T6n0WTALQhAAAKFBDSxTxP8NvWJf61/f1Jh3Vw2EIHbmwE8i7OfB4oMzUAAAhDITWB/c/z4em53pmfdwWYAXz89RHgMAQhAAAJrENguIs40x5Crr1EP/zQSgZON4J0TEVceyU6ahQAEIACBfAT+0xhD9LUAXwMkieE1zMAdPoDdsulxEbFvRLyRHxiQA+QAOWDnwKsj4lkRsesAW/He0BxH/nuAcYQmCgg81gzcIwrqnOcSzSi9z9LP0aY9a00y4d+8STnwghc50HYOnLF8LLte1/dVvmf03b9j/5i+wuDVe4gRNL3+38arvujqi0TEoYYddFZtd1bEl/iSA/3kgA70uWNRr+xf9BKzD7+W3wR3dE3gq0bQvtF14xFx4Yj4mmEDHUM/HQNc4UoOTCMHtCPfPXvoy7UvjJND9+7BBqo0CfzeCJq+U+q6vN9o30kurvUeRnjBixyYTg78MSK6/gS+VURIXJTm0XO6HkyozyOg74NKg6Xr9vCq3+zV7v4Djq1c68UWXvAiB6aVA5/ebA/tX3C8MaZo+TllRALXMYKlzmHnjm09wmyfDmpaHRTxJt7kQL85cIOO+/SPGX36YR23TXUmgZsZwdKD2OXmDXr7oEmFPOAwIAfIAXJgnBzYxxwzNnf5QUaf/vnNVcbf+yWg2aDOg3e5Ds3ZxWzbsZNrvbjCC17kwDRz4EMd9umqSvPESnPpWx23TXUmAc3CLA2WrruYWf+syx9qtu3YybVeXOEFL3JgmjmgFVhdFr1RKM2l47psmLp8AvczgqWgbu03sck7djfbLk0qrit/AGEFK3Jg2jnQ9afwvY1+/YRNjg78YRACNQmAo5a2tOQHBuQAOUAOzM4BZ2k3AmCQoTZnIzUJgJwEsQoCEIBALgIfMD6FIwByxW5QaxAAg+KmMQhAAAK9E0AA9I64jQYQAG3EES8gAAEIrBBAAKyQ4L8zCSAAZuLhjxCAAASqI4AAqC5k4xiMABiHO61CAAIQ6IsAAqAvso3ViwBoLKC4AwEITJ4AAmDyKVAGAAFQxomrIAABCNRCAAFQS6RGthMBMHIAaB4CEIBAxwQQAB0DbbU6BECrkcUvCEBgqgQQAFONvOk3AsAExuUQgAAEkhNAACQPUBbzEABZIoEdEIAABLohgADohmPztSAAmg8xDkIAAhMjgACYWMDndRcBMC857oMABCCQkwACIGdc0lmFAEgXEgyCAAQgsBABBMBC+KZzMwJgOrHGUwhAYBoEEADTiPPCXiIAFkZIBRCAAARSEUAApApHXmMQAHljg2UQgAAE5iGAAJiH2gTvQQBMMOi4DAEINE0AAdB0eLtzDgHQHUtqggAEIJCBAAIgQxQqsAEBUEGQMBECEICAQQABYMCa8qUIgClHH98hAIEWCSAAWoxqDz4hAHqASpUQgAAERiSAABgRfk1NIwBqiha2QgACENg8AQTA5hlxRUQgAEgDCEAAAm0RQAC0Fc/evEEA9IaWiiEAAQiMQgABMAr2+hpFANQXMyyGAAQgMIsAAmAWHf62jgACYB0KfoEABCDQBAEEQBNh7N8JBED/jGkBAhCAwJAEEABD0q64LQRAxcHDdAhAAAJrEEAArAGFf9qYAAJgYyb8CwQgAIGaCSAAao7egLYjAAaETVMQgAAEBiCAABgAcgtNIABaiCI+QAACEFhPAAGwngW/zSCAAJgBhz9BAAIQqJAAAqDCoI1hMgJgDOq0CQEIQKA/AgiA/tg2VTMCoKlw4gwEIACBQACQBEUEEABFmLgIAhCAQDUEEADVhGpcQxEA4/KndQhAAAJdE0AAdE200foQAI0GFrcgAIHJEkAATDb0nuMIAI8XV0MAAhDITgABkD1CSexDACQJBGZAAAIQ6IgAAqAjkK1XgwBoPcL4BwEITI0AAmBqEZ/TXwTAnOC4DQIQgEBSAgiApIHJZhYCIFtEsAcCEIDAYgQQAIvxm8zdCIDJhBpHIQCBiRBAAEwk0Iu6iQBYlCD3QwACEMhFAAGQKx5prUEApA0NhkEAAhCYiwACYC5s07sJATC9mOMxBCDQNgEEQNvx7cw7BEBnKKkIAhCAQAoCCIAUYchvBAIgf4ywEAIQgIBDAAHg0JrwtQiACQcf1yEAgSYJIACaDGv3TiEAumdKjRCAAATGJIAAGJN+RW0jACoKFqZCAAIQKCCAACiAxCURCACyAAIQgEBbBBAAbcWzN28QAL2hpWIIQAACoxBAAIyCvb5GEQD1xQyLIQABCMwigACYRYe/rSOAAFiHgl8gAAEINEEAAdBEGPt3AgHQP2NagAAEIDAkAQTAkLQrbgsBUHHwMB0CEIDAGgQQAGtA4Z82JoAA2JgJ/wIBCECgZgIIgJqjN6DtCIABYdMUBCAAgQEIIAAGgNxCEwiAFqKIDxCAAATWE0AArGfBbzMIIABmwOFPEIAABCokgACoMGhjmIwAGIM6bUIAAhDojwACoD+2TdWMAGgqnDgDAQhAIBAAJEERAQRAESYuggAEIFANAQRANaEa11AEwLj8aR0CEIBA1wQQAF0TbbQ+BECjgcUtCEBgsgQQAJMNvec4AsDjxdUQgAAEshNAAGSPUBL7EABJAoEZEIAABDoigADoCGTr1SAAWo8w/kEAAlMjgACYWsTn9BcBMCc4boMABCCQlAACIGlgspmFAMgWEeyBAAQgsBgBBMBi/CZzNwJgMqHGUQhAYCIEEAATCfSibiIAFiXI/RCAAARyEUAA5IpHWmsQAGlDg2EQgAAE5iKAAJgL2/RuQgBML+Z4DAEItE0AAdB2fDvzDgHQGUoqggAEIJCCAAIgRRjyG4EAyB8jLIQABCDgEEAAOLQmfC0CYMLBx3UIQKBJAgiAJsPavVMIgO6ZUiMEIACBMQkgAMakX1HbCICKgoWpEIAABAoIIAAKIHFJBAKALIAABCDQFgEEQFvx7M0bBEBvaKkYAhCAwCgEEACjYK+vUQRAfTHDYghAAAKzCCAAZtHhb+sIIADWoeAXCEAAAk0QQAA0Ecb+nUAA9M+YFiAAAQgMSQABMCTtittCAFQcPEyHAAQgsAYBBMAaUPinjQkgADZmwr9AAAIQqJkAAqDm6A1oOwJgQNg0BQEIQGAAAgiAASC30AQCoIUo4gMEIACB9QQQAOtZ8NsMAgiAGXD4EwQgAIEKCSAAKgzaGCYjAMagTpsQgAAE+iOAAOiPbVM1IwCaCifOQAACEAgEAElQRAABUISJiyAAAQhUQwABUE2oxjUUATAuf1qHAAQg0DUBBEDXRButDwHQaGBxCwIQmCwBBMBkQ+85jgDweHE1BCAAgewEEADZI5TEPgRAkkBgBgQgAIGOCCAAOgLZejUIgNYjjH8QgMDUCCAAphbxOf1FAMwJjtsgAAEIJCWAAEgamGxmIQCyRQR7IAABCCxGAAGwGL/J3I0AmEyocRQCEJgIAQTARAK9qJsIgEUJcj8EIACBXAQQALnikdYaBEDa0GAYBCAAgbkIIADmwja9mxAA04s5HkMAAm0TQAC0Hd/OvEMAdIaSiiAAAQikIIAASBGG/EYgAPLHCAshAAEIOAQQAA6tCV+LAJhw8HEdAhBokgACoMmwdu8UAqB7ptQIAQhAYEwCCIAx6VfUNgKgomBhKgQgAIECAgiAAkhcEoEAIAsgAAEItEUAAdBWPHvzBgHQG1oqhgAEIDAKAQTAKNjraxQBUF/MsBgCEIDALAIIgFl0+Ns6AgiAdSj4BQIQgEATBBAATYSxfycQAP0zpgUIQAACQxJAAAxJu+K2EAAVBw/TIQABCKxBAAGwBhT+aWMCCICNmfAvEIAABGomgACoOXoD2o4AGBA2TUEAAhAYgAACYADILTSBAGghivgAAQhAYD0BBMB6Fvw2gwACYAYc/gQBCECgQgIIgAqDNobJCIAxqNMmBCAAgf4IIAD6Y9tUzQiApsKJMxCAAAQCAUASFBFAABRh4iIIQAAC1RBAAFQTqnENRQCMy5/WIQABCHRNAAHQNdFG60MANBpY3IIABCZLAAEw2dB7jiMAPF5cDQEIQCA7AQRA9gglsQ8BkCQQmAEBCECgIwIIgI5Atl4NAqD1COMfBCAwNQIIgKlFfE5/EQBzguM2CEAAAkkJIACSBiabWQiAbBHBHghAAAKLEUAALMZvMncjACYTahyFAAQmQgABMJFAL+omAmBRgtwPAQhAIBcBBECueKS1BgGQNjQYBgEIQGAuAgiAubBN7yYEwPRijscQgEDbBBAAbce3M+8QAJ2hpCIIQAACKQggAFKEIb8RCID8McJCCEAAAg4BBIBDa8LXIgAmHHxchwAEmiSAAGgyrN07hQDonik1QgACEBiTAAJgTPoVtY0AqChYmAoBCECggAACoAASl0QgAMgCCEAAAm0RQAC0Fc/evEEA9IaWiiEAAQiMQgABMAr2+hpFANQXMyyGAAQgMIsAAmAWHf62jgACYB0KfoEABCDQBAEEQBNh7N8JBED/jGkBAhCAwJAEEABD0q64LQRAxcHDdAhAAAJrEEAArAGFf9qYAAJgYyb8CwQgAIGaCSAAao7egLYjAAaETVMQgAAEBiCAABgAcgtNIABaiCI+QAACEFhPAAGwngW/zSCAAJgBhz9BAAIQqJAAAqDCoI1hMgJgDOq0CQEIQKA/AgiA/tg2VTMCoKlw4gwEIACBQACQBEUEEABFmLgIAhCAQDUEEADVhGpcQxEA4/KndQhAAAJdE0AAdE200foQAI0GFrcgAIHJEkAATDb0nuMIAI8XV0MAAhDITgABkD1CSexDACQJBGZAAAIQ6IgAAqAjkK1XgwBoPcL4BwEITI0AAmBqEZ/TXwTAnOC4DQIQgEBSAgiApIHJZhYCIFtEsAcCEIDAYgQQAIvxm8zdCIDJhBpHIQCBiRBAAEwk0Iu6iQBYlCD3QwACEMhFAAGQKx5prUEApA0NhkEAAhCYiwACYC5s07sJATC9mOMxBCDQNgEEQNvx7cw7BEBnKKkIAhCAQAoCCIAUYchvBAIgf4ywEAIQgIBDAAHg0JrwtQiACQcf1yEAgSYJIACaDGv3TiEAumdKjRCAAATGJIAAGJN+RW0jACoKFqZCAAIQKCCAACiAxCURCACyAAIQgEBbBBAAbcWzN28QAL2hpWIIQAACoxBAAIyCvb5GEQD1xQyLIQABCMwigACYRYe/rSOAAFiHgl8gAAEINEEAAdBEGPt3AgHQP2NagAAEIDAkAQTAkLQrbgsBUHHwMB0CEIDAGgQQAGtA4Z82JoAA2JgJ/wIBCECgZgIIgJqjN6DtCIABYdMUBCAAgQEIIAAGgNxCEwiAFqKIDxCAAATWE0AArGfBbzMIIABmwOFPEIAABCokgACoMGhjmIwAGIM6bUIAAhDojwACoD+2TdWMAGgqnDgDAQhAIBAAJEERAQRAESYuggAEIFANAQRANaEa11AEwLj8aR0CEIBA1wQQAF0TbbQ+BECjgcUtCEBgsgQQAJMNvec4AsDjxdUQgAAEshNAAGSPUBL7EABJAoEZEIAABDoigADoCGTr1SAAWo8w/kEAAlMjgACYWsTn9BcBMCc4boMABCCQlAACIGlgspmFAMgWEeyBAAQgsBgBBMBi/CZzNwJgMqHGUQhAYCIEEAATCfSibiIAFiXI/RCAAARyEUAA5IpHWmsQAGlDg2EQgAAE5iKAAJgL2/RuQgBML+Z4DAEItE0AAdB2fDvzDgHQGUoqggAEIJCCAAIgRRjyG4EAyB8jLIQABCDgEEAAOLQmfC0CYMLBx3UIQKBJAgiAJsPavVMIgO6ZUiMEIACBMQkgAMakX1HbCICKgoWpEIAABAoIIAAKIHFJBAKALIAABCDQFgEEQFvx7M0bBEBvaKkYAhCAwCgEEACjYK+vUQRAfTHDYghAAAKzCCAAZtHhb+sIIADWoeAXCEAAAk0QQAA0Ecb+nUAA9M+YFiAAAQgMSQABMCTtittCAFQcPEyHAAQgsAYBBMAaUPinjQkgADZmwr9AAAIQqJkAAqDm6A1oOwJgQNg0BQEIQGAAAgiAASC30AQCoIUo4gMEIACB9QQQAOtZ8NsMAgiAGXD4EwQgAIEKCSAAKgzaGCYjAMagTpsQgAAE+iOAAOiPbVM1IwCaCifOQAACEAgEAElQRKAmAfDGiOAHBuQAOUAOzM6BEyLi74U/3yoaKcov2ruwXdknOykjEqhJAJQmNNeVP/ywghU5MO0cQACMOACP3TQCYNoPP50/8ScHpp0DCICxR+ER20cATPvhp/Mn/uTAtHMAATDiADx20wiAaT/8dP7EnxyYdg4gAMYehUdsHwEw7Yefzp/4kwPTzgEEwIgD8NhNjykA7m/MFqWTmnYnRfyJPznQTw58oeNBiFUAHQPts7oxBcC1EQDFS3Xo/Prp/OAK16nnwOs6HmAQAB0D7bO6MQWA/Po2IgARQA6QA+TAKDnwt4i4cccDDAKgY6B9Vje2ALhFRPyZh3+Uh3/qn3zwn0//U8+BV/UwuCAAeoDaV5VjCwD5ddeI+C0iABFADpAD5MAgOXBOROwfEefrYWBBAPQAta8qMwgA+XbxiHhiRLw3Ig7nBwbkADlADnSeAx+OiJdGxE59DShL9SIAeoTbddVZBEDXflEfBCAAAQgMTwABMDzzuVtEAMyNjhshAAEIQGADAgiADYBk/l8EQOboYBsEIACBugggACqKFwKgomBhKgQgAIHkBBAAyQO02jwEwGoa/A4BCEAAAosQQAAsQm/gexEAAwOnOQhAAAINE0AAVBRcBEBFwcJUCEAAAskJIACSB2i1eQiA1TT4HQIQgAAEFiGAAFiE3sD3IgAGBk5zEIAABBomgACoKLgIgIqChakQgAAEkhNAACQP0GrzEACrafA7BCAAAQgsQgABsAi9ge9FAAwMnOYgAAEINEwAAVBRcBEAFQULUyEAAQgkJ4AASB6g1eYhAFbT4HcIQAACEFiEAAJgEXoD34sAGBg4zUEAAhBomAACoKLgIgAqChamQgACEEhOAAGQPECrzXMFwGci4nB+YEAOkAPkADmwRg4cHxF/L/w5YfVgxO/DE3AFQGlgua78IYAVrMgBcmCKOYAAGH7MP1eLCAA6nil2PPhM3pMD4+cAAuBcw/Hw/4MAGP8hoCMiBuQAOTDFHDh5+CGPFlcTeGLhdzVTTE58plMmB8gBcqC/HDht9WDE78MTOAQBUDxhhY6gv44AtrAlB6aXA2dHxHmHH/ZocYXA0QgABAA5QA6QA+TASDlw85XBiP8OS2DbiJACQ3nDgBwgB8gBcmCMHNhv2GGP1lYI7Mbgj/ghB8gBcoAcGDEHjlkZkPjvsAQOHTHoYyhN2uQTDjlADpAD+XJgx2GHPlq7YERoBiYPAwzIAXKAHCAHxsyBvRiShyVwV3Pw/1ZEvJEfGJAD5AA5QA5sJge0uuwcY4z57LDDH629wQiOlCEzNckZCEAAAhAoJfB5Y4zRZHRNSqcMQOA8EXGSEZxfR8T5BrCLJiAAAQhAoA0CzzDGGH3IfFgbbuf34sZmYA7K7xIWQgACEIBAIgJXNceZ9yWyvWlTXmQG5l5N08A5CEAAAhDog8APjLHm9IjQ5HRKzwQ0oa90xuefImLrnu2heghAAAIQaI/Ay4yxRmPSHdtDkMujK0bE34ygfCSX+VgDAQhAAAKVELilMdZIABxQiV/VmvkEMyB7VOsphkMAAhCAwJgENHn8f40x58SI0CR1Sk8EPmkEQ28Ktu/JDqqFAAQgAIH2CRxsjDl6C3D99pGM4+FFI+LPRjC+No6ZtAoBCEAAAo0QuI8x5kgAvKARv9O58UAzEM9P5wEGQQACEIBATQQuHBFnGWPP12tyriZb32kEQUrsejU5h60QgAAEIJCSwGHG2MNXzz2EUJMxfmsEgckYPQSBKiEAAQhMkMCextijD5+6ntIhgduaAXhth21TFQQgAAEITJfA5czl53pjQOmQwH+YAuAOHbZNVRCAAAQgMG0C+m5fn+5LftiAruNc+VEheAXnDxFxgY7bz1KdNkLaOyIOjYjDK/z5dER8PyJ0QNOpEfGbiPhhROg4zVr8+VxEKB+1PlhfS/00Ir5akf3irBUysvtXEfGLiDg2Io6oyAfli7Zplf2Kwc+Wfaolh2TnV5bt/l1E6EdfWx5ZUQxWs9aGazpufdcsHWUPdmh2f8ngv3LNfXuwYZJV7mSCb/VQhhdGhJTlSoLxX1iQA+RAthyQiLlCgyOV1vc7rN/WIINRXHqOCb7FYxn3NRk4icq13oMNL3iRA7NzQG/ILj3KaNFvoz8x+mG9mdqiX3OmUbsUZekDd/bSfszbNoblhuYElFJWXFeeV7CCFTng5cBbGuuH5Y72+nfy4FYNMhjUJanIcwzo+m6wtaIVDU7ScS28yAFyYOwcODMitIlOS0Wn/TlcX96S82P48q8m8L3GMLLnNo8zGTgJyrXeAw0veJED5TnQ2qTA80fE743++Mc9jw3NV/8/Bmw9mDs2RuQapv90TuWdE6xgRQ70mwOva6w/ljuaZO7kzdUbZDCISxeKiDMM2McMYtWwjTzV8N9JSq71HmJ4wYsc8HNASxtbK5pk7uTCM1oDMJQ/9zBB7zeUYQO24xx/7CQl13oPMbzgRQ7MlwPXHLC/HKKpbSLir8bY9PkhjGqxjTcbkPVw3rwxCJpAw7r/+TodOmu4kQM5cqDFeVmabF6aX1qZdsnGxqbe3TlvRPzSgKxd2XRgUEvFfQNSmpBcV/7wwgpW5MBiOaAdA1srEjVOXuzWGoC+/bmZCfitfRs0Qv1vMBno64L/Svaj7U6dB+VLyewXz/9v+nBUQh/kh/M26TtJfdCnqdJ80pbT2Z4H2eOcaqqldBl90Aeu0jj8OSIuMkL/2WeTOxj+i5O2bqcYBF5iAr63UXctlzq7Tqmj2CqhY/ubcbxSQh+uZ/pw94Q+yCSn035mUh+cZyLrRjSvN/Npu4SxeLXpwz0T+rCoSZp0XiqCTo+ILRdtcEr3f8+A2+LJS9cy/FcS6jCOjOVThh9aX3uehE7c2fBBsbhJQh9kUgsC4MtGLLI+E48xfFA+3SlhPsmm0sFP1x2Y0IdFTdKkc4fBXRZtcCr3X8UEm/VBXyReTzcZPH6Rxnq8V6f9lT4kWXdxfKThg3zdvkeei1TdggD4oBGLbywCq8d7JRBLnwld9+webZm3an2adZZo67TG1orcC+LrAAAfGUlEQVT7NbXe/FAKCLhr3/coqLO2S3RsrtNJ6DupbEVHFzs+/Ec2B5btcQ6j+lvio6hbEADaWKY0p3TMccaiwfMvhh9ZTzfVB6/SWOg6neraUnEnqp+c9A1nuph8xkgsdbhZP3HNC1YTZpwJW5rslLHoez+ng3h4Rici4jWGHxpks5YWBMDzjVhowmDWlUHfNfzQyXoZi946Os93ixviaJ6Jw+BGGQOZyaaLm+r4a5mM78iWe5lJ9cqO2u26mr1NP67dtQEd1adZ2KUP+dEdtdlHNS0IAPdskIwT6BTbtxs5pQ85F+0jIRas88qGD3p+9MGuteJ+yFGfSJlB4KFmUukTQWvljSaD2ycF4JzjcFZE6KCNjOULRjw+kdGBZZtaEAA6XKZUjOm66yeNh/s15y2T+vEDIx762uNiSf2Y1yx3u/pvztvQVO5zD1rQEq3WivbPLu3k/hgRF0wKwPEj85scnehVGo+3JY2FzGpBAOgVamksdF3Wmdc7m348IWlevcr0o8Xl2u4+IRmXOqdIL/eoRQ0wGZeNLQLzOuYD9d+LNNbjvduafuitR9aiNbylg85LszrRiAC4nBELxWz3pPHQV516tV+aVwcl9eOOhg/y9U1J/VjErEebDLKu2FqEQSf3usl0QCet5qpEG7CUdgq6TmuKM5ZdTD8em9GJiNja9OMpSf2QWS28AdgiIs4xYvLcxPFwNjXK+upYbx8dgayVGa19aNM8EycnP544J0c1TQO6M/hJMLRWnEMmxEpL7TIWdx+Dm2Z0IiKuZubkA5P6IbNaEADy49dGTF6bOB7OngbaTvcCSX35sBEP9VnXTerHImY5W563OBdiEXbr7nUUsVRn1u++1zlk/qKZvs764Mwzzt9ldAparqWTDzOWWxt+qHPT9VlLKwLg20ZM3p81GEufGp0ljcqtrBMaH2fEQ348K3FM5jXt30wG95+3oVbvU3IrOUp/sm6OsUh87mv4L07HJj0oRMvm/mD4omszHngim440/FBMPpbYF2dviayHASkmzimh2okya245q0uUW5oom9GXw8xn5IhFOsmk97pzt96R1I/RzHqBmUQPG83S/hrWRJ9SAcR1sCIHyIEac+CvEaFJkK2VE4z++5SI0HwWyjKBrxvw9MpYs8xbKpoYc5rBoMYHH5sZsMgBckA5oPM1WivuCYlaCkpZWhqipT3Okpish8YsEsx7MPjz9oMcIAcmkgM67bW14q58yrqD6+Bx2dNM+r0Gt7D/Bp1jc/kUxacocoAcqDkHtGwu6zkN8/b22sfmd8ZYdty8DbV230cNaEr6HVsDEBHOsbk1P/jYzsBFDpADyoE7NNiPv9scy67VIAPLJZ18p33gSzuFrCffWU5vcLH2x3Y2kihlxXXleQUrWJEDw+bAfhv0gy3874ONsUz59uwWnF7EB3fpW+atVufloDWhdD4wIAfIgSnlgJZBtlb0YU6bNpXG8UutAXD90eEppbB03S3cBiq4/q0mA4cX13r5BS94kQPD5IBWc21TQf/smujM59Kb38u4DbRyvSaBON99ayez1iaOaPnfyQgASwTSQQ/TQcMZzn3nwANaGcxW+fFksz9/1Kp7J/XrrUxQ+qTcWrmhyaDvB5L66fTJAXJgqBw4uLUOPSL+yezTs57o2ntoXm6CavEsaXcP6a8m3Q50ZYtS5/svHeqycl/G/x5l5qfOBc/ox4pNrWwFLH9+ZsTm1ORxOdzwRQPzdxP7c2hEaKe/UgGhbZ1bOx1QA6fOaSllcEZEbNX7aJuwgR8YkNR56WjW1soXDQb6vujSiQFcyfBFD8crEvsi05ztqdXpZf96qpXDgBQbZ9c1fc2YuehQM+cQsMwHHInzh8x+4EaZgzOnbfuaDHads51qb9Na/lKFpOs+Uq2nmzb8EqZa1pGTmYve0DgxfWhmZyLiDYY/mseRvbQkALR8qjTXtMto1qN0V3JGhy+V+pN9A5k9DF/k8/NWIDT03/9nMnhjQ74XufJME5CSqrXyIJPBC5MD+HfTn+ybYOi7udJOWV8XZC8tCYDdjNgohldIHhxnNZQEjZabZS1iXfrc6LoWl8Lpa42fGxx+FRHnzRrQPuxyjsJUwm/fhxEj13mIkSB6UG4ysr2ba/7Dhj9nVnAalt64lHZkNbyhakkA3MmITQ3PjjtzXBOoMxft9V/67LR4uJtio0/1pQx03T9nDmiXtukkPwW9FI5OCmytSO1J9ZUyUOedXSE6ijf71xnKtxON+Ly5ggRtSQBc14iNnjEdtpW53Mb050mZnYmI/U1/tINea0Xf65f277pun9YAbMofHQXpgNFkrNbKjU0GeluQuUjUOTE9MLMzyzOTnVnz+voje2lJAFzKzLfsXyFe1DwRNfvyuduZ8Xl79odnDvsuFBF/NDhoHsgkygcMKBpUrt8gFWeGuRhovkDmooM9HAGQvUPWDmWOP4/LHJxl21oSAPqO1Zk5n33+jEJ0vJFz306ebzoZT8svS5+hGt5wzoPcmUckVleep5Ga7tGSl9OMxNBr2BbXiR5pMKjhOzJ3Umf277t2MuKjB/c+FTyELQkA4Xa+ctKKjuxFa+hLB0yJny2TO+QOftnnOM2DW7v8lcZU12X/amceBue6564mkAPOdXcb/6NPl84ciBoOzXiPEVf5nn3ji10Mf/Tg3qyC1GxNAGhuUGnnqrXp2Yu7KZh2Ec1cHmPER3Gs4S2Ny1v7tjh9vTaFaro4a6uVFHdskMZDzAfjuRUwcDZ10gzh7OVhZoy0CVL20poA0M6LpQJAO2hmL+6Ho39J7pBWbmkFV2mMapgYPA9yLXMsZaA3Oxefp5Ea7tGr/JMMGKdHhL4yaK28w2CgxMk+B+LCEaFdCkuTXP5nL88w/JHfmvCTvbQmAN5kxEhfJWYvlzX8Uc7V8HZU2xaX9gvZdzqdN3+cTavEKvt8r3k5/GMde2ky6Lr3zd1S3hu1lE974Jdy+EUFcyBubvgjv5+WNzzrLHul4dPv192V+5fWBMCLjBjpjIoa5hI5S4O1jXj28jIjRuobsu8OOg9vbXhW2t/runfN00gN97g7xek1bGvF3SLyhMQHf6wcMvNNM8GPqMAnZw+AP1Tgj2LlLGvUkqSV+Gb97zfMvNM8gKy+rNilw3FKBwudP6FzAVbuzfjfzxr+yO93ttbhL/vzI4ODVk9k37p6rjBp6Uppctcw830eCHsbDEpZcV15XsEKVuRA3hw4pYJDtebp9503ispPTUJuqlzRnBCiT4ktlh8jAIpFIB113o6a2BCbvnLgtg12/Dub/b5Ou2yqPNEEUMP3xG6AJIL6emioF7bkADnQQg60+OFPR4X/1uj/f+oOLtmv/6ThvJL4atkdmsO+15oMWniY8YFBiRwgB5wc0FyVFou7+us6rUDQPteahVuaBN9vxfEN/DjaYFDKiuvK8wpWsCIH6siBFrfEfYDZ/2tjqCbKA03HX9qE1+d2Qq+AzjA50FnV0VkRJ+JEDnSbA9k3OTp37172fxcxV+I0szGS1jU6D8gtynhWdZW2inUYcC28yAFyYKo58O6qevdyYz9hjAPaGEmbQ1Vdtlg64OB3htParESfllsr7h4IU33w8ZtBjxwgBzRmtDgOPMEYC/UcPLr2gdA9F/qttTu8Cfudg0voAOkAyQFyYOo5oB1GWyvucnidd1F1eZWpeO5dtbdrG38pc6/8qT/4+M/gRw6QA/us3Z1W/6/fMsbEMyNCZ61UW5yNb7T8Y+tqPd204bsZAVfHpwTJuK3nhjZptYbTUX+sEr90/kKpX1rbuyGXrP/f2lbA4qyJUqWx0nWHVRKvn5h+1bDNsXN6o2J11Ka71Kr/4pxhIQ73rNXba5tJrIezxfJek8PVK4GgeJV2vloBUct3es4e8x+sJFYys7XDgOST+xVjLROM3Y3TblNJHjrbweso4eonwa0Rlxsb/ab617esUUcV/6Rz7EsHCF23ZxVeeUZq0HN2gNLhP7UU55Pyl2txKiIcv15fkV8tCoBrmn3MfSuJ161Mv55SiV/7mX49shK/HDN1KuVJBgedHqtTZKsrRxpOSu1tX52HmzdYnzgcEaTdAmsolzb9qmWg1IOmU9ZKY/aCGoK1bGOLAuDiRqwUU83CrqFo8zQtAyvNw0NqcCoibm34JN9bPBJeoXqDyUHLyKsq25kJrFnyLZZ9zUDfpRIIdzb9qmU5y2Ua9Utp1aIAkF+aKFU6UOp5rKU486e0y2gNRcvCf2/ES8sBdU9rRf18ac7qupfUBkAdvuNgTZ+knFh80+Cgjmwrp/IRr32O4ZfyQN971VCub/q1aw1OLdvYqgBwJswdVFG8NMmxtA/VW6stK/Ht/YZf8v+WlfjlmHnBiDjN4PA9p/IM17ozPtXxtlb0aVJfbZQ+xDVNgtSruVK/auqcXGVei7DRs9WqAND8ktJcrOkZa1VkP8qIl+L64tYGhmV/DjU57FgLhwuZ+96fGBGaGNFa2d0McC3fTypOPzJ8q+X1pPxyY3b5ipK2VQHwASMX9UauluJ+zfavlTjmfjDSsugWi7s8/Km1QNC6xVJFrusOqMUx007nFZ447GDWP9blOtSixQlK4umsXBGD848VhDnabVUAvM7ob345B7exbnEn2opDLcXZDEdvUWsS2qUx2NaccPyZ0orHvk7rFh0BcMexDe6hfXeyy7E92NBXlfpOzolvNco1IrQKo9Q3Lc+pqbQqAJ5vxOzsivajUG45S1JrWmqr1/qlz5mu09cGLZbPGxyUuxINqYuWUUlllwb39IjQhIjWirvc5ZUVAXA3Kdm5It+cCUrfqcgvmdqqANCr79L+RtfpFXQt5aOGbzVttuV+iNBz2WJ5hhFf5e5Ds0Nwj73Va/IWi7vhxe0rgqADm0o7XL2+u0RFvn3R8O3jFfklU1sVAHczYqa8vUFFcXM/KV+jEt+0QdopRtz+UNnXbaVhuKrBQLmrXWVTF61XLB0cdN3DU3szv3HOlpd/rOwtiLO0saadDRXt44z8PXj+9BjlzlYFwI2MmKnPueso9Odr9H6mbw+er5lR7nJWEilutWx37ML8gRFjCaELuA0Mef0xhjP6TuOSQxo3UFuasOIs//v50hrel1bys39EKG6lIu+Hlfi1wv8vhm/a6XLlvhr+q1fEpXH7bEW+/afhl/zXa/Ua4iUbDzR90+FItfimSW2l+ajrXjZQ/z10My83OdxhaANL29MsdiegR5RWXNl17neSDjOu9XIMXvAiB9rIgdrm3JQOW+65D2lXze1lCoCnlRKq7DpnXTKdUxudE3EkjuRA/zlwxcrGghJzNR/iN8bYmXbfHL02dB6Cq5XQqewarQs/1eTgMONaL8fgBS9yoJ0cqOVMEXfYeps5ZqTbOXcbc1OD77uEKrneXd5C59RO50QsiSU50G8OtLpqTMdUO7mT7uych5kOaKJKi2UPk4MTdK71HhJ4wYscaCsHqjsUp3CQ0+6qZxljR7rTc90lHbcoBFPbZXsaQaRzaqtzIp7EkxzoNwdaFQAa55xNn7TKbPssg6O+93bOeP5tZdtxOpy1VpVOAAbkADlADnSfA63uCKgx5rHm2KEPmymK9vJ3kr22DVQcyDoDQLM0HR5cCy9ygBwgBzafA/quvNVyOXP/mDRHW7sbcdyn1Qgu+6UkdTYC4sHf/IMPIxiRA9POAa0ya/HY+NXD4VHGh8c/RcTWq28e6/ef1Gh0z7C0GdCZBhc6t2l3bsSf+JMDm84BfT9+sZ777AzVv9AcM0b/MK2DNZzETfPaYoBoXyUi9o2IT0SElF1rPz+OCM3n0FkG2qNaWxrrDIQW/Dx6+VRLnVYp/+Sn/G3BN/mgMw90GMtK7E6OCO201oJ/K7E7LSK0/bH8bCl2x28Qu5aeu9X596WI0NfFdxmgr87ShDuejv51uqtY0kxcyBJx7IAABCAAAQgsE3DeqI8+oV6KrfQNQKqlC6QbBCAAAQhAIBkBd06dNp8bpbizFtNtXjAKNRqFAAQgAAEIrE3AXVU32imJ7rrFdNsXrs2ff4UABCAAAQiMQsDdV+fYUaw0dy7S1wTpDjAYCxztQgACEIAABDZBwN1Zd/CD9dy9i382gTWcm4gl/wwBCEAAAhAoJuCerfP04po7utA9vUgTGygQgAAEIAABCMwm4J6u+7nZ1XX/10OM2f96/X+n7k2gRghAAAIQgECTBLTzYekKu7Mj4pJDUThfRPzGME6bqVxwKONoBwIQgAAEIFA5gb2MMVZC4RFD+Xtr07D/Gsow2oEABCAAAQg0QGAHc5wd7KTE/U3DHt5AMHABAhCAAAQgMCSBY4yxVm/atxzCuB8aRg363cQQztMGBCAAAQhAYAAC+xljrb4GuHPfNl3DNOiIvg2ifghAAAIQgECDBG5ujrev75vBM02Dnta3QdQPAQhAAAIQaJDAeZdPJS1dDaBTPc/TJ4cvmAJg8B2K+nSeupskoIfsXstHN78xIvhpm4H2JNEMax3XTYFAdgIHmWPujfpyaNuI0Hf6pWpktD2K+wJAvc0RuF5EOHNaSnOf68r7ibFY/TUiXhsRWtZMgUBWAvpw4jwje/flyO6mIaOdUtQXAOptisBOEXGqmdPOg8i1Xsc1Fq93NpXVONMaga0i4gyjn/pmXwA+aBihh3m0c4r7AkC9TRFwdtoaa3Ci3WFExF2bymycaY3Ah82x90pdA9BOfqcZRvyWV2tdh4D6OiRwGyOXGYSHGYTH5PyVDnOLqiDQNYHHmP3V47s24G6mAQd3bQD1QaBDAtqdcswBh7bz8b9Jh/lFVRDoksB2EXGO0Wd9vMvGVdeBRuPq3O7TtQHUB4GOCFw2Iv5i5jMDdr4Bu+uY8KGloweManoh8FWjz/pzRFy0Kyu0rvAko/E/RcTWXTVOPRDomMCLjFzuepChvrxCQv3WpTvONaqDQFcEnmf2W/fvqmG9GnM6rsO6aph6INAxgfNHxM/NfHZyn2u9viIbr2d1nG9UB4GuCFzX7Lfe3lXD+5gN79lVw9QDgY4JPMjM5WwDFPb0KzBOZPJyx08c1XVJ4ASj/zplaXOzLbpo/DtGo3+LiO27aJQ6INADAXcnSwbcfgfcjHzv3kPeUSUEuiDwGmMs1rOl1U4LlX8yGzxqoda4GQL9EXBfoWmnuMP5qZ7B980+rPMZ1P2lNDVPjMDtzVx+xaJ8nmQ2+MJFG+R+CPRE4E1mLn+gJzuodlgCO5hLqPQW8+rDmkhrECgioDlMvzf6seOKap1xkT4BOa/pbjCjLv4EgbEIXDwi/mjm8u3GMpZ2OyfwMTP2r+rcAiqEQDcE3mPm8jXnbfZiEaH1hKUC4Gd9H0U4ryPcN3kCTzXyWPmu18a9Hqs5+YgMC2BXM/46I+LCw5pIaxAoIvBgM5fnXtnizpjWMZsUCGQjoIHcPfGv8600s0GZmD068vl4s+PcY2KMcLcOAu4H8y/O69ZbzQfmzvM2xH0Q6JGA8rL0LZau05kXne2i1aNfVO0ReIaZB9/jLZAHmKsHI/BpI5fPjgiJBrs4aw5PjwgdGESBQDYC7klavMnKFsFu7LmEeayqxOCtummaWiDQKYEnGwJAeWyfdqm1/M6nJh2uQoFANgJaxioF7OTytbM5gT2dEXDfar63s5apCALdEXCX5+/nNn1Ps9Pc3W2A6yEwAIGXm3msV2uUdglolZIjBrUXxOXbxYFnFRM41sjlT7h+PtGoXA/UVd0GuB4CPRO4UET81sxjTrHsOSgJqj/SzIm9E9iMCRDYkIBOrywVsxILVnmZUbk6WQoEshHQW6nSB0TXnRwR2miD0jaBh5l58Qvyou2EqNQ7Z5M+7YFilbcYD8kxVs1cDIFhCHzdyGEJgH8bxixaGZnABSLiV2ZuPGBkm2keAhsSeIiZw1tuWMGs/3e2TdUrNQoEMhG4qflwaMOr7TI5gC29EnixmR+f69UaKoeAT8CdpyfhW1wONB4QrZelQCATgXcY+atP/+/MZDy29E7gCktvfDTBz/mKSIdJUSCQhcAjzfzVZljFRacIlT4cvymulQsh0D+BS0XEWUb+Ks9v1r9ZtJCMwAfNHNGHIgoEshB4rpG/6g+t8gSjcnWgWpdIgUAGAs6Dodz9VgajsWFwAruYfdwZEaHNhCgQyEDAEbA628QqdzEfjkdYtXMxBPohcL6I+ImZu4/qxxRqrYDAd81ceUoFPmFi+wTUz/3ayN2PuEjcnYYOcxvgegj0QODexkOhT/+/i4iterCDKusg4L7p/HFEWN+l1oEBKysjcEezn9NX+nZxzgLQhJor2y1wAwS6JfAp88HYv9vmqa0yAltHxB/MnFHnS4HAmAQ+YObs3eYx9iCzES0dpEBgLALXjIi/GTmra3ccy1jaTUPgdUbO6K3R/6SxHEOmSOBaEXGOkbP6cC6ha5f7GY3owZBRt7Bb4QYIdEPgADNf7e/FujGTWpIRcIWj+jnediYL4kTMOU9EfMbs5z47LxttHKAlfhrcS39+GBHag50CgSEJXCQiTjXyVPmsia4UCIiA26m+FGwQGIGAu421+rmFJui/2uxU1aBeqVEgMCSBx5l5ehyTuYYMT/q27mvmj84/sbZWTU8AA7MT0MR8Z+a/xmLNb1lokrNej7nnqathnSZIgcBQBI42O/C9hjKMdqogsEVEnGTm0G5VeIaRLRC4aES4S1Y1Dr+mC+fdbVXVsETDXDMPuzCYOiZF4LZmx31mRGwzKUI4W0LgeWYefaOkUq6BwIIEdELpx83c1Bisjasuu2Db/7j9ShGhw1JUqfPzp4jgFK0uIkAdswgcaublm2dVxt8mS0BbSKvPcvq4f54sLRwfgoBe32uyspOTK9d2Ok/lVXMaoTcBew5BijYmSeByEfEXMzdvNElSOF1C4F1mLh1SUinXQGAOApeMiK+Y+bgy+Ou4607fckqJaBeslQbc/0pAXHAOCNwCgVkE9jFz8ouzKuNvkydwczOf9Mbg0pOnBoCuCdwwIn5k5uLqMVmTWjsvejicDQhWG6TfdWzw9Tq3igqnSkDLVH9pPiQPnios/C4mcJSZU88prpkLITCbgNb5P3nOr9xXxtv3zm5isb/uaz4cK0at/FcTsJ7NEprFgsDd/yDwEDMXtYSGt1Akz+YI/IuZVydGhA5noUBgEQLXjYjPmbm3Mq6u/Ffb92+7iBGbu1cHYXx0QSNl7E8jQp/GpHgoEJiHwJfMPPz3eRrhnskR0EZmWue/0qmW/Peek6OEw10R0Ex9TUyeZ7n96tz841Bv2LUm8ZvmA7La0NW/qx6tp+WTWVfpNI16rm/mn/bD3n4aaPCyAwI6PW11P7W53z/ZQZtUMS0CV1tep3+6mWtr5aL6t12HxHeZBScpbOjE/0bEiyNipyGdoK1qCbzFfGjeX62nGD4GgR3M+U46WOoaYxhKm1UR0GR6HVmudf3OwWUbjper/1/z8kbZlGq7Dt8ErHZIqw2kwHeJiItXFV6MHYKAckKvu1bnzOZ+33kIw2ijKQKHmTnWya5rTRHEGX1lrk/6mleiUyQ1B25zfZXzd+3P86AxMevrAPcgDcdBXauJDR9cOtLwlUvfk2i3rscvvX3QBLD78zNJBm83HyJt8aoNqcgXGDg58BIzz9S56+AVpw2ubYfX7hGhLca1NPnAiNAcpS5e729qvFTddxhz8F9pW8ux3mc+LJtyin/vViHCE57kADlADrSVA6dExM1WBuAM/+1i/SJJ2laSEk/iSQ6QA+RAtzlwZERcJcOgv5YNN+54ciDJ023ywBOe5AA5QA7UlwOa6a/9/XU4UOqydUQczFcCnU724IGt74ElZsSMHCAHusgBzYPTTrxVlZtGxJcRAggBcoAcIAfIAXLAzgGtdtKn/otUNfKvMlZzAzTTVTv/daGEqAOO5AA5QA6QAy3ngNb2a7WTdglsolx4aQ3kMyNC+2a3HDh8I77kADlADpAD8+SA1vW/e6gtfcdQFtoY4e4RcXiHOyHNA5p7eEDJAXKAHCAHMuTAr5Zf9V9hjEF5rDZ1+tF+S18RHMNbAd6KkAPkADlADkwoB05d2j5aR/c+MCK0l86ky1WXd1HSroJ97p6UQe1hA586yAFygByYVg7oe/0fLB3Xe8DyDn6TH/Q3pXj0NcGOy5MH913eQ1mnBv4iIs6akEKkg5hWB0G8iTc5UHcO6IAf7dJ3bEQcsbwl8J7Lu/ZVO5N/UwP1mP+uM7svwQ8MyAFyYMQc2GbEtun/co0BY46HtA0BCEAAAhCAAAQgAAEIQAACEIAABCAAAQhAAAIQgAAEIAABCEAAAhCAAAQgAAEIQAACEIAABCAAAQhAAAIQgAAEIAABCEAAAhCAAAQgAAEIQAACEIAABCAAAQhAAAIQgAAEIAABCEAAAhCAAAQgAAEIQAACEIAABCAAAQhAAAIQgAAEIAABCEAAAhCAAAQgAAEIQAACEIAABCAAAQhAAAIQgAAEIAABCEAAAhCAAAQgAAEIQAACEIAABCAAAQhAAAIQgAAEIAABCEAAAhCAAAQgAAEIQAACEIAABCAAAQhAAAIQgAAEIAABCEAAAhCAAAQgAAEIQAACEIAABCAAAQhAAAIQgAAEIAABCEAAAhCAAAQgAAEIQAACEKiUwP8Bl/vGsTB249EAAAAASUVORK5CYII=;" vertex="1" parent="1">
          <mxGeometry x="30" y="238" width="102" height="102" as="geometry" />
        </mxCell>
        <mxCell id="F3jdzz_wUt6CEXbVW0qb-5" value="&lt;font style=&quot;font-size: 24px;&quot;&gt;Client&lt;/font&gt;" style="text;html=1;align=center;verticalAlign=middle;resizable=0;points=[];autosize=1;strokeColor=none;fillColor=none;" vertex="1" parent="1">
          <mxGeometry x="36" y="340" width="80" height="40" as="geometry" />
        </mxCell>
        <mxCell id="F3jdzz_wUt6CEXbVW0qb-12" value="" style="edgeStyle=none;orthogonalLoop=1;jettySize=auto;html=1;rounded=0;exitX=0.971;exitY=0.186;exitDx=0;exitDy=0;curved=1;exitPerimeter=0;" edge="1" parent="1" source="F3jdzz_wUt6CEXbVW0qb-4">
          <mxGeometry width="100" relative="1" as="geometry">
            <mxPoint x="375" y="260" as="sourcePoint" />
            <mxPoint x="700" y="250" as="targetPoint" />
            <Array as="points">
              <mxPoint x="410" y="130" />
            </Array>
          </mxGeometry>
        </mxCell>
        <mxCell id="F3jdzz_wUt6CEXbVW0qb-13" value="&lt;font style=&quot;font-size: 24px;&quot;&gt;Request&lt;/font&gt;" style="text;html=1;align=center;verticalAlign=middle;resizable=0;points=[];autosize=1;strokeColor=none;fillColor=none;" vertex="1" parent="1">
          <mxGeometry x="360" y="152" width="110" height="40" as="geometry" />
        </mxCell>
        <mxCell id="F3jdzz_wUt6CEXbVW0qb-14" style="edgeStyle=orthogonalEdgeStyle;rounded=0;orthogonalLoop=1;jettySize=auto;html=1;" edge="1" parent="1">
          <mxGeometry relative="1" as="geometry">
            <mxPoint x="690" y="285" as="sourcePoint" />
            <mxPoint x="130" y="285" as="targetPoint" />
          </mxGeometry>
        </mxCell>
        <mxCell id="F3jdzz_wUt6CEXbVW0qb-15" value="&lt;font style=&quot;font-size: 24px;&quot;&gt;TCP Connection&lt;/font&gt;" style="text;html=1;align=center;verticalAlign=middle;resizable=0;points=[];autosize=1;strokeColor=none;fillColor=none;" vertex="1" parent="1">
          <mxGeometry x="315" y="323" width="200" height="40" as="geometry" />
        </mxCell>
        <mxCell id="F3jdzz_wUt6CEXbVW0qb-16" value="&lt;font style=&quot;font-size: 24px;&quot;&gt;1&lt;/font&gt;" style="ellipse;whiteSpace=wrap;html=1;aspect=fixed;" vertex="1" parent="1">
          <mxGeometry x="189" y="266" width="40" height="40" as="geometry" />
        </mxCell>
        <mxCell id="F3jdzz_wUt6CEXbVW0qb-19" value="&lt;font style=&quot;font-size: 24px;&quot;&gt;2&lt;/font&gt;" style="ellipse;whiteSpace=wrap;html=1;aspect=fixed;" vertex="1" parent="1">
          <mxGeometry x="247" y="265" width="40" height="40" as="geometry" />
        </mxCell>
        <mxCell id="F3jdzz_wUt6CEXbVW0qb-28" value="&lt;font style=&quot;font-size: 24px;&quot;&gt;3&lt;/font&gt;" style="ellipse;whiteSpace=wrap;html=1;aspect=fixed;" vertex="1" parent="1">
          <mxGeometry x="306" y="265" width="40" height="40" as="geometry" />
        </mxCell>
        <mxCell id="F3jdzz_wUt6CEXbVW0qb-29" value="&lt;font style=&quot;font-size: 24px;&quot;&gt;4&lt;/font&gt;" style="ellipse;whiteSpace=wrap;html=1;aspect=fixed;" vertex="1" parent="1">
          <mxGeometry x="364" y="264" width="40" height="40" as="geometry" />
        </mxCell>
        <mxCell id="F3jdzz_wUt6CEXbVW0qb-31" value="&lt;font style=&quot;font-size: 24px;&quot;&gt;5&lt;/font&gt;" style="ellipse;whiteSpace=wrap;html=1;aspect=fixed;" vertex="1" parent="1">
          <mxGeometry x="422" y="265" width="40" height="40" as="geometry" />
        </mxCell>
        <mxCell id="F3jdzz_wUt6CEXbVW0qb-32" value="&lt;font style=&quot;font-size: 24px;&quot;&gt;6&lt;/font&gt;" style="ellipse;whiteSpace=wrap;html=1;aspect=fixed;" vertex="1" parent="1">
          <mxGeometry x="480" y="264" width="40" height="40" as="geometry" />
        </mxCell>
        <mxCell id="F3jdzz_wUt6CEXbVW0qb-33" value="&lt;font style=&quot;font-size: 24px;&quot;&gt;7&lt;/font&gt;" style="ellipse;whiteSpace=wrap;html=1;aspect=fixed;" vertex="1" parent="1">
          <mxGeometry x="539" y="264" width="40" height="40" as="geometry" />
        </mxCell>
        <mxCell id="F3jdzz_wUt6CEXbVW0qb-34" value="&lt;font style=&quot;font-size: 24px;&quot;&gt;8&lt;/font&gt;" style="ellipse;whiteSpace=wrap;html=1;aspect=fixed;" vertex="1" parent="1">
          <mxGeometry x="597" y="263" width="40" height="40" as="geometry" />
        </mxCell>
        <mxCell id="F3jdzz_wUt6CEXbVW0qb-35" value="&lt;font style=&quot;font-size: 36px;&quot;&gt;&lt;b&gt;HTTP/2&lt;/b&gt;&lt;/font&gt;" style="text;html=1;align=center;verticalAlign=middle;resizable=0;points=[];autosize=1;strokeColor=none;fillColor=none;" vertex="1" parent="1">
          <mxGeometry x="10" y="147" width="150" height="60" as="geometry" />
        </mxCell>
        <mxCell id="F3jdzz_wUt6CEXbVW0qb-69" value="" style="shape=image;verticalLabelPosition=bottom;labelBackgroundColor=default;verticalAlign=top;aspect=fixed;imageAspect=0;image=data:image/png,iVBORw0KGgoAAAANSUhEUgAAAgAAAAIACAYAAAD0eNT6AAAAAXNSR0IArs4c6QAAIABJREFUeAHt3T2PJGe5BuBHOODLiIAACQsR8QuQSED8ASwHJwQJCR8OmMyBRUhAZDkgA4nYzkgckdkiQDoS1kksIW2IQIAhQVrEV2LO3tbWeHd2dnq6nurqfquukla9M9P1VtX1Pl332931UXX66dmqeqGqXq6q16rqjap6u6ruVdX9qvqPfwzUgBpQA2pghzWQDEwWJhOTjcnIZGUyM9k55PRcVb1UVb+oqn/tsFMNagzs1IAaUANqoFMDyc5kaLI0mXrR0yeq6pWqeqeq3hf6RvNqQA2oATWgBhapgWRqsjUZm6y9mOmZqvpOVf1BRy/S0Z0Ro3m941ADakANbLsGkrXJ3GTvWafnq+o3gl/wqwE1oAbUgBpYtQaSvcng1acvVNUvdfaqnW1Uv+1Rvf7Vv2pADcypgWRxMnmV6atV9RfhL/zVgBpQA2pADVxEDSSTk80nnV6sqn/r8Ivo8DkjRfN4h6EG1IAa2GYNJJuT0YtPOdjgx4Jf8KsBNaAG1IAauOgaSFYvdoBgGnpTh190hxvRb3NEr1/1qxpQA3NqIJm9yCDAO38FOKcAzaNu1IAaUAPnq4Fkd2vK9wk6kIEaUANqQA2ogfFqYPYxATmi0AF/43W4F6k+UwNqQA2ogdRAMvzoswNyTqFT/RSQnYgaUANqQA2MXQPJ8qOuE+AiP2N3uBes/lMDakANqIGpBpLpd5pyacFpJo8s1IAaUANqQA2MXwMHLxuc0wZOdW3/6daG33tw7+OvVdUXR77f8Z2GUp5EgAABAgSeLvDswyxMJiYbc/vfZOUpBlzJ9ltPDcwdhpZe8HtV9f2q+tTTDfyFAAECBAgQeJiVycxk59J5nIy/cco9hpe8pW+OPvyRd/k3WvslAQIECBC4TSCfDiRDlzwbLxmfrH9iemXB0UZGLl95Ygl+QYAAAQIECBwjkCxd8tOAZP0T0zsLDQDerarPP9G6XxAgQIAAAQJzBJKpydYlvhJI1j82PVdV7y/QeEYpwv8xWj8QIECAAIG2QLJ1iU8CkvXJ/KvppQXCP99T+Nj/itR/CBAgQIDAogLJ2CWOCUjmX0059aD70UIOVjARIECAAAECpxNI1nbzOpn/wZQjDbvnHeZjibRjIkCAAAECBE4nkKztfhWQzP8gs19YYDSRcxZNBAgQIECAwOkFkrndTwGS/fVys6GMJFzk5/QdbgkECBAgQCACydzuJ/fJ/nqtOQC4+i5BvxAgQIAAAQKrCHSP3Uv21xvNAUCuX2wiQIAAAQIE1hNI9na+Bkj219vNRnITAxMBAgQIECCwnkCytzMASPbXvWYjuaufiQABAgQIEFhPINnbGQAk++t+sxGn/63X4ZZEgAABAgQikOztDACS/a0GsnATAQIECBAgsL5AZwDwQX63G1h/my2RAAECBAjsXqCd3+0Gdt8FAAgQIECAwPoC7fxuN7D+NlsiAQIECBDYvUA7v9sN7L4LABAgQIAAgfUF2vndbmD9bbZEAgQIECCwe4F2frcb2H0XACBAgAABAusLtPO73cD622yJBAgQIEBg9wLt/G43sPsuAECAAAECBNYXaOd3u4H1t9kSCRAgQIDA7gXa+d1uYPddAIAAAQIECKwv0M7vdgPrb7MlEiBAgACB3Qu087vdwO67AAABAgQIEFhfoJ3f7QbW32ZLJECAAAECuxdo53e7gd13AQACBAgQILC+QDu/2w2sv82WSIAAAQIEdi/Qzu92A7vvAgAECBAgQGB9gXZ+txtYf5stkQABAgQI7F6gnd/tBnbfBQAIECBAgMD6Au38bjew/jZbIgECBAgQ2L1AO7/bDey+CwAQIECAAIH1Bdr53W5g/W22RAIECBAgsHuBdn63G9h9FwAgQIAAAQLrC7Tzu93A+ttsiQQIECBAYPcC7fxuN7D7LgBAgAABAnMFPl5Vz1fVq1X1elW9VVX3qur+w3/5f36Xv+U5eW7mMVW187vdgF4gQIAAAQJHCHymql6sqjer6u91fJBlnsz77apKW3ud2vndbmCv8rabAAECBI4S+GRV/bCq/jYj9J+WVWkrbabtvU1PM7nr7/sfIexN3PYSIECAwFECz1TVd6vqTwsG//WQS9tZRpa1l+m6wbE/GwDspVJsJwECBM4g8Lmq+vUJg/966GVZWeYepuvbfuzPBgB7qBLbSIAAgTMIfPnBu/I/rhj+UwBmmVn21qdpe+c+GgBsvUJsHwECBM4g8M2q+ucZwn8Kwyw767DladrWuY8GAFuuDttGgACBMwgkeOeG0tLzfeMM27/WIrtW7U5aa0MthwABAgQuXyAfvZ/znf/1UPxHVX3p8tlmreH1bT32ZwOAWexmIkCAAIHrAjn47hzf+R8Kvt9X1Wevr+wGfj603Yf+bgCwgSKwCQQIEDi3QE6/W/No/0Phdv3vv6qqj5wbaeHlX9/GY382AFi4QzRHgACBPQrkHPxjA2jt539rYx3T9Wt32MY8bQ4BAgQIHCmQq/Cd8iI/3aCb5v/dg/sJfOzIbbvkp0/bNffRAOCSe9e6ESBAYACBXIp3bgitPd8PBvC86yp27dqddtcV9TwCBAgQ2J5Absaz5LX9u6F2aP6/VtWnN9INh7b10N8NADZSCDaDAAEC5xDIHfkOBc2l/X0rFwjqurY77hwF11lmRqv/U1U/q6r/q6r3/GNwxhpIDaYWU5N7vq1p5zVt3vMK5La83SBae/6fn5dssaV33dodt9iWrNDQf1XVnwcs1m4nm3+MHVRqMzVqIjCKwMer6u8D7lPzlcVHR0G+ZT27+/bdDAB+OmCRdjvX/GME//V+Sq2aCIwg8PzA+9WvjwB8YB2v7zuO/XkXA4C8qzoWxvOZnbMGfBJwYM/nzxch8OrA+9as++hTdx/VDsZLB8z3qj72F+bdF8ra86dmHRNw6XsX6/f6wAOArPvoU3e/tPkBwH8PXKDdzjX/2AOf1K6JwCULvDXw/jXrPvrU3cdvfgDwk4ELtNu55h97AJDaNRG4ZIF7A+9fs+6jT919/OYHAP87cIF2O9f8Yw8AUrsmApcscH/g/WvWffSpu483ABi4gLudb/7LHiAYAIy+e97++hsAnLePu/vwzQ8AfAVw2SHXLeAtz+8rgPPuXC39sICvAA4bnfIZ3f3f5gcADgI0AOi+SM41v4MAT7nr1PYSAg4CXEJxfhvdfdPmBwBOAzQA6L5IzjG/0wDn7xTNuZ6A0wDXs75pSd190+YHAEFzISCDgO4LZe35XQjopt2d312agAsBnbdHuvulXQwA0kUuBWwQ0H2xrDW/SwGfd6dq6XcXcCngu1ud4pndfdJuBgDBz7sqVwU0EOi+aE41f2rTO/9T7Ca1eSoBNwM6lezd2u3ui3Y1AAhpjgnIwVU5wjqnWf3WPwZnrIHUYGoxNenSv3fb6XnWZQm4HfD5+sMA4Hz2lkyAAIHdC3x7wGupfHMjvWYAsJGOtBkECBAYUSCfXP1toEHAX6vq0yNC37DOBgA3oPgVAQIECKwn8MOBBgA/WI/l5EsyADg5sQUQIECAwG0Cn6yqPw0wCPhdVX3stg0Z7G8GAIN1mNUlQIDAFgW+O8AA4FsbgzcA2FiH2hwCBAiMKPBMVf36ggcBv6qqj4wIe8s6GwDcguNPBAgQILCewOeq6o8XOAj4fVV9dj2G1ZZkALAatQURIECAwCGBL1fVPy9oEPCPqvrSoZUe9O8GAIN2nNUmQIDAVgVynn03nJaa/xtbRV7AuN1JG7a1aQQIECAwUyDBm3ffSwX5se1k2VsO/3TLsSbXn99vYGZxmI0AAQIEti2Qj97z/fv14Dn1z1nmVj/2f7Riuo7tjnl0ZfyfAAECBAg8KpCD73IEfjes7jp/lrXFA/4eNZ3+f1eTpz2v3SnTingkQIAAAQI3CeT0u5yDnwvxPC2Mur9P21nG1k71u8lz+l3XrN0Z04p4JECAAAECtwnkKny5FG+ux98Nr2n+tJU2t3SFv9sMH/3bZDD3sd0Jj66M/xMgQIAAgUMCuRlPzhT4+cwbCeXmQ5k3bWzlxj6HzG76+9zgn+YzALhJ1e8IECBAYBWBj1bV1x+8g3+1ql6vqreq6l5V3X/4L//P7/K3PCfPzTym/qcoBgCqiAABAgQIDCgwvZOf+2gAMGCnW2UCBAgQIDA3+Kf5DADUEAECBAgQGFBgCvK5jwYAA3a6VSZAgAABAnODf5rPAEANESBAgACBAQWmIJ/7aAAwYKdbZQIECBAgMDf4p/kMANQQAQIECBAYUGAK8rmPBgADdrpVJkCAAAECc4N/ms8AQA0RIECAAIEBBaYgn/toADBgp1tlAgQIECAwN/in+QwA1BABAgQIEBhQYAryuY8GAAN2ulUmQIAAAQJzg3+azwBADREgQIAAgQEFpiCf+2gAMGCnW2UCBAgQIDA3+Kf5DADUEAECBAgQGFBgCvK5jwYAA3a6VSZAgAABAnODf5rPAEANESBAgACBAQWmIJ/7aAAwYKdbZQIECBAgMDf4p/kMANQQAQIECBAYUGAK8rmPBgADdrpVJkCAAAECc4N/ms8AQA0RIECAAIEBBaYgn/toADBgp1tlAgQIECAwN/in+QwA1BABAgQIEBhQYAryuY8GAAN2ulUmQIAAAQJzg3+ar+5XtQYBz+oDAgQIECBAYFWBZO8U5HMek/11r9nIF1fdZAsjQIAAAQIEkr1zgn+aJ9lfbzcb+Zp+IECAAAECBFYVSPZOYT7nMdlfbzQb+d6qm2xhBAgQIECAQLJ3TvBP8yT767VmI7/QDwQIECBAgMCqAsneKcznPCb76+VmI/+qqk+tutkWRoAAAQIE9iuQzE32zgn+aZ5kf73QbCSNfX+//WDLCRAgQIDAqgLJ3CnI5z4m+yunEnRHEu89bGdVAQsjQIAAAQI7E0hmJ3PnBn/mS+ZfncLf/S4hDf5oZ51gcwkQIECAwNoCydpO+Gfex47de2mBBv9dVV9ZW8LyCBAgQIDATgSSscna7gAgmX81PVdV7y/QaD6W+PxVq/5DgAABAgQILCGQbO1+9J+BQ7I+mf/Y9M4CA4A0/q5BwGOufiBAgAABAh2BhH+ytfvOP/Mn65+YXlmo8SwgoxRfBzxB7BcECBAgQOAogWTpEu/8p8FDsv6J6RNV9YcFBwH5niIHK1wdafjEEv2CAAECBAgQuEkg2ZkMXeI7/yn8k/HJ+hun7yw4AJgWmJFLzll0saAbyf2SAAECBAhcCSQrk5lLvuuf8jgZ/9Tpmar6zQkGAVl4zjvMqQe5fnFuYpA7Gfl04Kld4Q8ECBAgsHGBZGCyMJmYbExGdq/LM4X99cdkezL+1un5Ew0Arq+Mn5c5oIMjRzWgBtSAGjhUA8n2O02/NAhY5GjLQx3i7160akANqAE1cOoaSKbfefpCVf3FIMAgQA2oATWgBtTA0DWQLE+mHzV9deGjD089wtG+UbQaUANqQA2ogQ9rIGcQJMtnTS8a+Q098vNC+PCFwIKFGlADe6uBZHhr+rFBgEGAGlADakANqIGhaiDZ3Z5y2sCbOn6ojt/bKNf2emenBtSAGviwBpLZB0/5u+voIA35JOBDXIXGQg2oATWgBi6xBpLVi4X/o4OEfJ+w5GUJLxHPOnlRqwE1oAbUwGg1kGxuf+f/aODf9P8cUegUQS+O0V4c1lfNqgE1sNUaSCbPPtr/pqC/7Xc5p9DFgryYtvpisl1qWw2ogVFqIFl89Hn+twX8Xf+WSwue6t4Bo+BbTzsKNaAG1IAaWLsGkr13vrzvXUP92OflYIPcYWjJWwmvDWl5XrxqQA2oATUwQg0ka5O5JznQ79gBwPT83GP4lap6p6red9qg0wbVgBpQA2pADSxSA8nUZGsyNll70dNzD+5l/NKJb204wkjNOnpHoQbUgBpQA3NqILcFzu2Bk6XJ1CGn3O/4hap6+cHI5bWqeuPBvY/frqp7VXXf6HCR0eGc4jKPnZIaUANq4Lw1kAxMFiYTk43JyGRlMjPZaSJAgAABAgQIECBAgAABAgQIECBAgAABAgQIECBAgAABAgQIECBAgAABAgQIECBAgAABAgQIECBAgAABAgQIECBAgAABAgQIECBAgAABAgQIECBAgAABAgQIECBAgAABAgQIECBAgAABAgQIECBAgAABAgQIECBAgAABAgQIECBAgAABAgQIECBAgAABAgQ2KPBsVb1QVS9X1WtV9UZVvV1V96rqflX9xz8GakANqAE1sMMaSAYmC5OJycZkZLIymZnsHHJ6rqpeqqpfVNW/dtipBjUGdmpADagBNdCpgWRnMjRZmky96OkTVfVKVb1TVe8LfaN5NaAG1IAaUAOL1EAyNdmajE3WXsz0TFV9p6r+oKMX6ejOiNG83nGoATWgBrZdA8naZG6y96zT81X1G8Ev+NWAGlADakANrFoDyd5k8OrTF6rqlzp71c42qt/2qF7/6l81oAbm1ECyOJm8yvTVqvqL8Bf+akANqAE1oAYuogaSycnmk04vVtW/dfhFdPickaJ5vMNQA2pADWyzBpLNyejFpxxs8GPBL/jVgBpQA2pADVx0DSSrFztAMA29qcMvusON6Lc5otev+lUNqIE5NZDMXmQQ4J2/ApxTgOZRN2pADaiB89VAsrs15fsEHchADagBNaAG1MB4NTD7mIAcUeiAv/E63ItUn6kBNaAG1EBqIBl+9NkBOafQqX4KyE5EDagBNaAGxq6BZPlR1wlwkZ+xO9wLVv+pATWgBtTAVAPJ9DtNubTgNJNHFmpADagBNaAGxq+Bg5cNzmkDp7q2/3Rrw+89uPfx16rqiyPf7/hOQylPIkCAAAECTxd49mEWJhOTjbn9b7LyFAOuZPutpwbmDkNLL/i9qvp+VX3q6Qb+QoAAAQIECDzMymRmsnPpPE7G3zjlHsNL3tI3Rx/+yLv8G639kgABAgQI3CaQTweSoUuejZeMT9Y/Mb2y4GgjI5evPLEEvyBAgAABAgSOEUiWLvlpQLL+iemdhQYA71bV559o3S8IECBAgACBOQLJ1GTrEl8JJOsfm56rqvcXaDyjFOH/GK0fCBAgQIBAWyDZusQnAcn6ZP7V9NIC4Z/vKXzsf0XqPwQIECBAYFGBZOwSxwQk86+mnHrQ/WghByuYCBAgQIAAgdMJJGu7eZ3M/2DKkYbd8w7zsUTaMREgQIAAAQKnE0jWdr8KSOZ/kNkvLDCayDmLJgIECBAgQOD0Asnc7qcAyf56udlQRhIu8nP6DrcEAgQIECAQgWRu95P7ZH+91hwAXH2XoF8IECBAgACBVQS6x+4l++uN5gAg1y82ESBAgAABAusJJHs7XwMk++vtZiO5iYGJAAECBAgQWE8g2dsZACT7616zkdzVz0SAAAECBAisJ5Ds7QwAkv11v9mI0//W63BLIkCAAAECEUj2dgYAyf5WA1m4iQABAgQIEFhfoDMA+CC/2w2sv82WSIAAAQIEdi/Qzu92A7vvAgAECBAgQGB9gXZ+txtYf5stkQABAgQI7F6gnd/tBnbfBQAIECBAgMD6Au38bjew/jZbIgECBAgQ2L1AO7/bDey+CwAQIECAAIH1Bdr53W5g/W22RAIECBAgsHuBdn63G9h9FwAgQIAAAQLrC7Tzu93A+ttsiQQIECBAYPcC7fxuN7D7LgBAgAABAgTWF2jnd7uB9bfZEgkQIECAwO4F2vndbmD3XQCAAAECBAisL9DO73YD62+zJRIgQIAAgd0LtPO73cDuuwAAAQIECBBYX6Cd3+0G1t9mSyRAgAABArsXaOd3u4HddwEAAgQIECCwvkA7v9sNrL/NlkiAAAECBHYv0M7vdgO77wIABAgQIEBgfYF2frcbWH+bLZEAAQIECOxeoJ3f7QZ23wUACBAgQIDA+gLt/G43sP42WyIBAgQIENi9QDu/2w3svgsAECBAgACB9QXa+d1uYP1ttkQCBAgQILB7gXZ+txvYfRcAIECAAIG5Ah+vquer6tWqer2q3qqqe1V1/+G//D+/y9/ynDw385iq2vndbkAvECBAgACBIwQ+U1UvVtWbVfX3Oj7IMk/m/XZVpa29Tu38bjewV3nbTYAAAQJHCXyyqn5YVX+bEfpPy6q0lTbT9t6mp5nc9ff9jxD2Jm57CRAgQOAogWeq6rtV9acFg/96yKXtLCPL2st03eDYnw0A9lIptpMAAQJnEPhcVf36hMF/PfSyrCxzD9P1bT/2ZwOAPVSJbSRAgMAZBL784F35H1cM/ykAs8wse+vTtL1zHw0Atl4hto8AAQJnEPhmVf3zDOE/hWGWnXXY8jRt69xHA4AtV4dtI0CAwBkEErxzQ2np+b5xhu1fa5Fdq3YnrbWhlkOAAAECly+Qj97P+c7/eij+o6q+dPlss9bw+rYe+7MBwCx2MxEgQIDAdYEcfHeO7/wPBd/vq+qz11d2Az8f2u5DfzcA2EAR2AQCBAicWyCn3615tP+hcLv+919V1UfOjbTw8q9v47E/GwAs3CGaI0CAwB4Fcg7+sQG09vO/tbGO6fq1O2xjnjaHAAECBI4UyFX4TnmRn27QTfP/7sH9BD525LZd8tOn7Zr7aABwyb1r3QgQIDCAQC7FOzeE1p7vBwN43nUVu3btTrvrinoeAQIECGxPIDfjWfLa/t1QOzT/X6vq0xvphkPbeujvBgAbKQSbQYAAgXMI5I58h4Lm0v6+lQsEdV3bHXeOgussM6PV/6mqn1XV/1XVe/4xOGMNpAZTi6nJPd/WtPOaNu95BXJb3m4QrT3/z89LttjSu27tjltsS1Zo6L+q6s8DFmu3k80/xg4qtZkaNREYReDjVfX3Afep+crio6Mg37Ke3X37bgYAPx2wSLuda/4xgv96P6VWTQRGEHh+4P3q10cAPrCO1/cdx/68iwFA3lUdC+P5zM5ZAz4JOLDn8+eLEHh14H1r1n30qbuPagfjpQPme1Uf+wvz7gtl7flTs44JuPS9i/V7feABQNZ99Km7X9r8AOC/By7Qbueaf+yBT2rXROCSBd4aeP+adR996u7jNz8A+MnABdrtXPOPPQBI7ZoIXLLAvYH3r1n30afuPn7zA4D/HbhAu51r/rEHAKldE4FLFrg/8P416z761N3HGwAMXMDdzjf/ZQ8QDABG3z1vf/0NAM7bx919+OYHAL4CuOyQ6xbwluf3FcB5d66WfljAVwCHjU75jO7+b/MDAAcBGgB0XyTnmt9BgKfcdWp7CQEHAS6hOL+N7r5p8wMApwEaAHRfJOeY32mA83eK5lxPwGmA61nftKTuvmnzA4CguRCQQUD3hbL2/C4EdNPuzu8uTcCFgM7bI9390i4GAOkilwI2COi+WNaa36WAz7tTtfS7C7gU8N2tTvHM7j5pNwOA4OddlasCGgh0XzSnmj+16Z3/KXaT2jyVgJsBnUr2bu1290W7GgCENMcE5OCqHGGd06x+6x+DM9ZAajC1mJp06d+77fQ867IE3A74fP1hAHA+e0smQIDA7gW+PeC1VL65kV4zANhIR9oMAgQIjCiQT67+NtAg4K9V9ekRoW9YZwOAG1D8igABAgTWE/jhQAOAH6zHcvIlGQCcnNgCCBAgQOA2gU9W1Z8GGAT8rqo+dtuGDPY3A4DBOszqEiBAYIsC3x1gAPCtjcEbAGysQ20OAQIERhR4pqp+fcGDgF9V1UdGhL1lnQ0AbsHxJwIECBBYT+BzVfXHCxwE/L6qPrsew2pLMgBYjdqCCBAgQOCQwJer6p8XNAj4R1V96dBKD/p3A4BBO85qEyBAYKsCOc++G05Lzf+NrSIvYNzupA3b2jQCBAgQmCmQ4M2776WC/Nh2suwth3+65ViT68/vNzCzOMxGgAABAtsWyEfv+f79evCc+ucsc6sf+z9aMV3Hdsc8ujL+T4AAAQIEHhXIwXc5Ar8bVnedP8va4gF/j5pO/7+rydOe1+6UaUU8EiBAgACBmwRy+l3Owc+FeJ4WRt3fp+0sY2un+t3kOf2ua9bujGlFPBIgQIAAgdsEchW+XIo31+Pvhtc0f9pKm1u6wt9tho/+bTKY+9juhEdXxv8JECBAgMAhgdyMJ2cK/HzmjYRy86HMmza2cmOfQ2Y3/X1u8E/zGQDcpOp3BAgQILCKwEer6usP3sG/WlWvV9VbVXWvqu4//Jf/53f5W56T52YeU/9TFAMAVUSAAAECBAYUmN7Jz300ABiw060yAQIECBCYG/zTfAYAaogAAQIECAwoMAX53EcDgAE73SoTIECAAIG5wT/NZwCghggQIECAwIACU5DPfTQAGLDTrTIBAgQIEJgb/NN8BgBqiAABAgQIDCgwBfncRwOAATvdKhMgQIAAgbnBP81nAKCGCBAgQIDAgAJTkM99NAAYsNOtMgECBAgQmBv803wGAGqIAAECBAgMKDAF+dxHA4ABO90qEyBAgACBucE/zWcAoIYIECBAgMCAAlOQz300ABiw060yAQIECBCYG/zTfAYAaogAAQIECAwoMAX53EcDgAE73SoTIECAAIG5wT/NZwCghggQIECAwIACU5DPfTQAGLDTrTIBAgQIEJgb/NN8BgBqiAABAgQIDCgwBfncRwOAATvdKhMgQIAAgbnBP81nAKCGCBAgQIDAgAJTkM99NAAYsNOtMgECBAgQmBv803wGAGqIAAECBAgMKDAF+dxHA4ABO90qEyBAgACBucE/zVf3q1qDgGf1AQECBAgQILCqQLJ3CvI5j8n+utds5IurbrKFESBAgAABAsneOcE/zZPsr7ebjXxNPxAgQIAAAQKrCiR7pzCf85jsrzeajXxv1U22MAIECBAgQCDZOyf4p3mS/fVas5Ff6AcCBAgQIEBgVYFk7xTmcx6T/fVys5F/VdWnVt1sCyNAgAABAvsVSOYme+cE/zRPsr9eaDaSxr6/336w5QQIECBAYFWBZO4U5HMfk/2VUwm6I4n3HrazqoCBCRbVAAAU8ElEQVSFESBAgACBnQkks5O5c4M/8yXzr07h736XkAZ/tLNOsLkECBAgQGBtgWRtJ/wz72PH7r20QIP/rqqvrC1heQQIECBAYCcCydhkbXcAkMy/mp6rqvcXaDQfS3z+qlX/IUCAAAECBJYQSLZ2P/rPwCFZn8x/bHpngQFAGn/XIOAxVz8QIECAAIGOQMI/2dp955/5k/VPTK8s1HgWkFGKrwOeIPYLAgQIECBwlECydIl3/tPgIVn/xPSJqvrDgoOAfE+RgxWujjR8Yol+QYAAAQIECNwkkOxMhi7xnf8U/sn4ZP2N03cWHABMC8zIJecsuljQjeR+SYAAAQIErgSSlcnMJd/1T3mcjH/q9ExV/eYEg4AsPOcd5tSDXL84NzHInYx8OvDUrvAHAgQIENi4QDIwWZhMTDYmI7vX5ZnC/vpjsj0Zf+v0/IkGANdXxs/LHNDBkaMaUANqQA0cqoFk+52mXxoELHK05aEO8XcvWjWgBtSAGjh1DSTT7zx9oar+YhBgEKAG1IAaUANqYOgaSJYn04+avrrw0YenHuFo3yhaDagBNaAG1MCHNZAzCJLls6YXjfyGHvl5IXz4QmDBQg2ogb3VQDK8Nf3YIMAgQA2oATWgBtTAUDWQ7G5POW3gTR0/VMfvbZRre72zUwNqQA18WAPJ7IOn/N11dJCGfBLwIa5CY6EG1IAaUAOXWAPJ6sXC/9FBQr5PWPKyhJeIZ528qNWAGlADamC0Gkg2t7/zfzTwb/p/jih0iqAXx2gvDuurZtWAGthqDSSTZx/tf1PQ3/a7nFPoYkFeTFt9Mdkuta0G1MAoNZAsPvo8/9sC/q5/y6UFT3XvgFHwracdhRpQA2pADaxdA8neO1/e966hfuzzcrBB7jC05K2E14a0PC9eNaAG1IAaGKEGkrXJ3JMc6HfsAGB6fu4x/EpVvVNV7ztt0GmDakANqAE1oAYWqYFkarI1GZusvejpuQf3Mn7pxLc2HGGkZh29o1ADakANqIE5NZDbAuf2wMnSZOqQU+53/EJVvfxg5PJaVb3x4N7Hb1fVvaq6b3S4yOhwTnGZx05JDagBNXDeGkgGJguTicnGZGSyMpmZ7DQRIECAAAECBAgQIECAAAECBAgQIECAAAECBAgQIECAAAECBAgQIECAAAECBAgQIECAAAECBAgQIECAAAECBAgQIECAAAECBAgQIECAAAECBAgQIECAAAECBAgQIECAAAECBAgQIECAAAECBAgQIECAAAECBAgQIECAAAECBAgQIECAAAECBAgQIECAAAECGxR4tqpeqKqXq+q1qnqjqt6uqntVdb+q/uMfAzWgBtSAGthhDSQDk4XJxGRjMjJZmcxMdg45PVdVL1XVL6rqXzvsVIMaAzs1oAbUgBro1ECyMxmaLE2mXvT0iap6pareqar3hb7RvBpQA2pADaiBRWogmZpsTcYmay9meqaqvlNVf9DRi3R0Z8RoXu841IAaUAPbroFkbTI32XvW6fmq+o3gF/xqQA2oATWgBlatgWRvMnj16QtV9UudvWpnG9Vve1Svf/WvGlADc2ogWZxMXmX6alX9RfgLfzWgBtSAGlADF1EDyeRk80mnF6vq3zr8Ijp8zkjRPN5hqAE1oAa2WQPJ5mT04lMONvix4Bf8akANqAE1oAYuugaS1YsdIJiG3tThF93hRvTbHNHrV/2qBtTAnBpIZi8yCPDOXwHOKUDzqBs1oAbUwPlqINndmvJ9gg5koAbUgBpQA2pgvBqYfUxAjih0wN94He5Fqs/UgBpQA2ogNZAMP/rsgJxT6FQ/BWQnogbUgBpQA2PXQLL8qOsEuMjP2B3uBav/1IAaUANqYKqBZPqdplxacJrJIws1oAbUgBpQA+PXwMHLBue0gVNd23+6teH3Htz7+GtV9cWR73d8p6GUJxEgQIAAgacLPPswC5OJycbc/jdZeYoBV7L91lMDc4ehpRf8XlV9v6o+9XQDfyFAgAABAgQeZmUyM9m5dB4n42+cco/hJW/pm6MPf+Rd/o3WfkmAAAECBG4TyKcDydAlz8ZLxifrn5heWXC0kZHLV55Ygl8QIECAAAECxwgkS5f8NCBZ/8T0zkIDgHer6vNPtO4XBAgQIECAwByBZGqydYmvBJL1j03PVdX7CzSeUYrwf4zWDwQIECBAoC2QbF3ik4BkfTL/anppgfDP9xQ+9r8i9R8CBAgQILCoQDJ2iWMCkvlXU0496H60kIMVTAQIECBAgMDpBJK13bxO5n8w5UjD7nmH+Vgi7ZgIECBAgACB0wkka7tfBSTzP8jsFxYYTeScRRMBAgQIECBweoFkbvdTgGR/vdxsKCMJF/k5fYdbAgECBAgQiEAyt/vJfbK/XmsOAK6+S9AvBAgQIECAwCoC3WP3kv31RnMAkOsXmwgQIECAAIH1BJK9na8Bkv31drOR3MTARIAAAQIECKwnkOztDACS/XWv2Uju6mciQIAAAQIE1hNI9nYGAMn+ut9sxOl/63W4JREgQIAAgQgkezsDgGR/q4Es3ESAAAECBAisL9AZAHyQ3+0G1t9mSyRAgAABArsXaOd3u4HddwEAAgQIECCwvkA7v9sNrL/NlkiAAAECBHYv0M7vdgO77wIABAgQIEBgfYF2frcbWH+bLZEAAQIECOxeoJ3f7QZ23wUACBAgQIDA+gLt/G43sP42WyIBAgQIENi9QDu/2w3svgsAECBAgACB9QXa+d1uYP1ttkQCBAgQILB7gXZ+txvYfRcAIECAAAEC6wu087vdwPrbbIkECBAgQGD3Au38bjew+y4AQIAAAQIE1hdo53e7gfW32RIJECBAgMDuBdr53W5g910AgAABAgQIrC/Qzu92A+tvsyUSIECAAIHdC7Tzu93A7rsAAAECBAgQWF+gnd/tBtbfZkskQIAAAQK7F2jnd7uB3XcBAAIECBAgsL5AO7/bDay/zZZIgAABAgR2L9DO73YDu+8CAAQIECBAYH2Bdn63G1h/my2RAAECBAjsXqCd3+0Gdt8FAAgQIECAwPoC7fxuN7D+NlsiAQIECBDYvUA7v9sN7L4LABAgQIDAXIGPV9XzVfVqVb1eVW9V1b2quv/wX/6f3+VveU6em3lMVe38bjegFwgQIECAwBECn6mqF6vqzar6ex0fZJkn8367qtLWXqd2frcb2Ku87SZAgACBowQ+WVU/rKq/zQj9p2VV2kqbaXtv09NM7vr7/kcIexO3vQQIECBwlMAzVfXdqvrTgsF/PeTSdpaRZe1lum5w7M8GAHupFNtJgACBMwh8rqp+fcLgvx56WVaWuYfp+rYf+7MBwB6qxDYSIEDgDAJffvCu/I8rhv8UgFlmlr31adreuY8GAFuvENtHgACBMwh8s6r+eYbwn8Iwy846bHmatnXuowHAlqvDthEgQOAMAgneuaG09HzfOMP2r7XIrlW7k9baUMshQIAAgcsXyEfv53znfz0U/1FVX7p8tllreH1bj/3ZAGAWu5kIECBA4LpADr47x3f+h4Lv91X12esru4GfD233ob8bAGygCGwCAQIEzi2Q0+/WPNr/ULhd//uvquoj50ZaePnXt/HYnw0AFu4QzREgQGCPAjkH/9gAWvv539pYx3T92h22MU+bQ4AAAQJHCuQqfKe8yE836Kb5f/fgfgIfO3LbLvnp03bNfTQAuOTetW4ECBAYQCCX4p0bQmvP94MBPO+6il27dqfddUU9jwABAgS2J5Cb8Sx5bf9uqB2a/69V9emNdMOhbT30dwOAjRSCzSBAgMA5BHJHvkNBc2l/38oFgrqu7Y47R8F1lpnR6v9U1c+q6v+q6j3/GJyxBlKDqcXU5J5va9p5TZv3vAK5LW83iNae/+fnJVts6V23dscttiUrNPRfVfXnAYu128nmH2MHldpMjZoIjCLw8ar6+4D71Hxl8dFRkG9Zz+6+fTcDgJ8OWKTdzjX/GMF/vZ9SqyYCIwg8P/B+9esjAB9Yx+v7jmN/3sUAIO+qjoXxfGbnrAGfBBzY8/nzRQi8OvC+Nes++tTdR7WD8dIB872qj/2FefeFsvb8qVnHBFz63sX6vT7wACDrPvrU3S9tfgDw3wMXaLdzzT/2wCe1ayJwyQJvDbx/zbqPPnX38ZsfAPxk4ALtdq75xx4ApHZNBC5Z4N7A+9es++hTdx+/+QHA/w5coN3ONf/YA4DUronAJQvcH3j/mnUfferu4w0ABi7gbueb/7IHCAYAo++et7/+BgDn7ePuPnzzAwBfAVx2yHULeMvz+wrgvDtXSz8s4CuAw0anfEZ3/7f5AYCDAA0Aui+Sc83vIMBT7jq1vYSAgwCXUJzfRnfftPkBgNMADQC6L5JzzO80wPk7RXOuJ+A0wPWsb1pSd9+0+QFA0FwIyCCg+0JZe34XArppd+d3lybgQkDn7ZHufmkXA4B0kUsBGwR0Xyxrze9SwOfdqVr63QVcCvjuVqd4ZneftJsBQPDzrspVAQ0Eui+aU82f2vTO/xS7SW2eSsDNgE4le7d2u/uiXQ0AQppjAnJwVY6wzmlWv/WPwRlrIDWYWkxNuvTv3XZ6nnVZAm4HfL7+MAA4n70lEyBAYPcC3x7wWirf3EivGQBspCNtBgECBEYUyCdXfxtoEPDXqvr0iNA3rLMBwA0ofkWAAAEC6wn8cKABwA/WYzn5kgwATk5sAQQIECBwm8Anq+pPAwwCfldVH7ttQwb7mwHAYB1mdQkQILBFge8OMAD41sbgDQA21qE2hwABAiMKPFNVv77gQcCvquojI8Less4GALfg+BMBAgQIrCfwuar64wUOAn5fVZ9dj2G1JRkArEZtQQQIECBwSODLVfXPCxoE/KOqvnRopQf9uwHAoB1ntQkQILBVgZxn3w2npeb/xlaRFzBud9KGbW0aAQIECMwUSPDm3fdSQX5sO1n2lsM/3XKsyfXn9xuYWRxmI0CAAIFtC+Sj93z/fj14Tv1zlrnVj/0frZiuY7tjHl0Z/ydAgAABAo8K5OC7HIHfDau7zp9lbfGAv0dNp//f1eRpz2t3yrQiHgkQIECAwE0COf0u5+DnQjxPC6Pu79N2lrG1U/1u8px+1zVrd8a0Ih4JECBAgMBtArkKXy7Fm+vxd8Nrmj9tpc0tXeHvNsNH/zYZzH1sd8KjK+P/BAgQIEDgkEBuxpMzBX4+80ZCuflQ5k0bW7mxzyGzm/4+N/in+QwAblL1OwIECBBYReCjVfX1B+/gX62q16vqraq6V1X3H/7L//O7/C3PyXMzj6n/KYoBgCoiQIAAAQIDCkzv5Oc+GgAM2OlWmQABAgQIzA3+aT4DADVEgAABAgQGFJiCfO6jAcCAnW6VCRAgQIDA3OCf5jMAUEMECBAgQGBAgSnI5z4aAAzY6VaZAAECBAjMDf5pPgMANUSAAAECBAYUmIJ87qMBwICdbpUJECBAgMDc4J/mMwBQQwQIECBAYECBKcjnPhoADNjpVpkAAQIECMwN/mk+AwA1RIAAAQIEBhSYgnzuowHAgJ1ulQkQIECAwNzgn+YzAFBDBAgQIEBgQIEpyOc+GgAM2OlWmQABAgQIzA3+aT4DADVEgAABAgQGFJiCfO6jAcCAnW6VCRAgQIDA3OCf5jMAUEMECBAgQGBAgSnI5z4aAAzY6VaZAAECBAjMDf5pPgMANUSAAAECBAYUmIJ87qMBwICdbpUJECBAgMDc4J/mMwBQQwQIECBAYECBKcjnPhoADNjpVpkAAQIECMwN/mk+AwA1RIAAAQIEBhSYgnzuowHAgJ1ulQkQIECAwNzgn+ar+1WtQcCz+oAAAQIECBBYVSDZOwX5nMdkf91rNvLFVTfZwggQIECAAIFk75zgn+ZJ9tfbzUa+ph8IECBAgACBVQWSvVOYz3lM9tcbzUa+t+omWxgBAgQIECCQ7J0T/NM8yf56rdnIL/QDAQIECBAgsKpAsncK8zmPyf56udnIv6rqU6tutoURIECAAIH9CiRzk71zgn+aJ9lfLzQbSWPf328/2HICBAgQILCqQDJ3CvK5j8n+yqkE3ZHEew/bWVXAwggQIECAwM4EktnJ3LnBn/mS+Ven8He/S0iDP9pZJ9hcAgQIECCwtkCythP+mfexY/deWqDBf1fVV9aWsDwCBAgQILATgWRssrY7AEjmX03PVdX7CzSajyU+f9Wq/xAgQIAAAQJLCCRbux/9Z+CQrE/mPza9s8AAII2/axDwmKsfCBAgQIBARyDhn2ztvvPP/Mn6J6ZXFmo8C8goxdcBTxD7BQECBAgQOEogWbrEO/9p8JCsf2L6RFX9YcFBQL6nyMEKV0caPrFEvyBAgAABAgRuEkh2JkOX+M5/Cv9kfLL+xuk7Cw4ApgVm5JJzFl0s6EZyvyRAgAABAlcCycpk5pLv+qc8TsY/dXqmqn5zgkFAFp7zDnPqQa5fnJsY5E5GPh14alf4AwECBAhsXCAZmCxMJiYbk5Hd6/JMYX/9MdmejL91ev5EA4DrK+PnZQ7o4MhRDagBNaAGDtVAsv1O0y8NAhY52vJQh/i7F60aUANqQA2cugaS6XeevlBVfzEIMAhQA2pADagBNTB0DSTLk+lHTV9d+OjDU49wtG8UrQbUgBpQA2rgwxrIGQTJ8lnTi0Z+Q4/8vBA+fCGwYKEG1MDeaiAZ3pp+bBBgEKAG1IAaUANqYKgaSHa3p5w28KaOH6rj9zbKtb3e2akBNaAGPqyBZPbBU/7uOjpIQz4J+BBXobFQA2pADaiBS6yBZPVi4f/oICHfJyx5WcJLxLNOXtRqQA2oATUwWg0km9vf+T8a+Df9P0cUOkXQi2O0F4f1VbNqQA1stQaSybOP9r8p6G/7Xc4pdLEgL6atvphsl9pWA2pglBpIFh99nv9tAX/Xv+XSgqe6d8Ao+NbTjkINqAE1oAbWroFk750v73vXUD/2eTnYIHcYWvJWwmtDWp4XrxpQA2pADYxQA8naZO5JDvQ7dgAwPT/3GH6lqt6pqvedNui0QTWgBtSAGlADi9RAMjXZmoxN1l709NyDexm/dOJbG44wUrOO3lGoATWgBtTAnBrIbYFze+BkaTJ1yCn3O36hql5+MHJ5rareeHDv47er6l5V3Tc6XGR0OKe4zGOnpAbUgBo4bw0kA5OFycRkYzIyWZnMTHaedPp/+k/2ybNdZyEAAAAASUVORK5CYII=;" vertex="1" parent="1">
          <mxGeometry x="710" y="500" width="92" height="92" as="geometry" />
        </mxCell>
        <mxCell id="F3jdzz_wUt6CEXbVW0qb-70" value="&lt;font style=&quot;font-size: 24px;&quot;&gt;QUIC Server&lt;/font&gt;" style="text;html=1;align=center;verticalAlign=middle;resizable=0;points=[];autosize=1;strokeColor=none;fillColor=none;" vertex="1" parent="1">
          <mxGeometry x="676" y="600" width="160" height="40" as="geometry" />
        </mxCell>
        <mxCell id="F3jdzz_wUt6CEXbVW0qb-71" value="" style="shape=image;verticalLabelPosition=bottom;labelBackgroundColor=default;verticalAlign=top;aspect=fixed;imageAspect=0;image=data:image/png,iVBORw0KGgoAAAANSUhEUgAAAgAAAAIACAYAAAD0eNT6AAAAAXNSR0IArs4c6QAAIABJREFUeAHtnQeYbUWVtpeKiigGUDGgoyImzGF+syhmMeeIOKNgVsyOAQcUFR0Do2JAxOyIjvMrJgwYMWBCEQOgiBhGUQQBA+j059N9b3Nv33PrO2eHVbXfep5+aG7vXbXWu9au+s4+FSIoEIAABCAAAQhAAAIQgAAEIAABCEAAAhCAAAQgAAEIQAACEIAABCAAAQhAAAIQgAAEIAABCEAAAhCAAAQgAAEIQAACEIAABCAAAQhAAAIQgAAEIAABCEAAAhCAAAQgAAEIQAACEIAABCAAAQhAAAIQgAAEIAABCEAAAhCAAAQgAAEIQAACEIAABCAAAQhAAAIQgAAEIAABCEAAAhCAAAQgAAEIQAACEIAABCAAAQhAAAIQgAAEIAABCEAAAhCAAAQgAAEIQAACEIAABCAAAQhAAAIQgAAEIAABCEAAAhCAAAQgAAEIQAACEIAABCAAAQhAAAIQgAAEIAABCEAAAhCAAAQgAAEIQAACEIAABCAAAQhAAAIQgAAEIAABCEAAAhCAAAQgAAEIVETgohFx44i4R0Q8OCIeExHPiIhn8QMDcoAcIAc6zYEnRsSjIuL+EbFLRFwlIs5X0XiBqRUT2DIibreUcPtExGeWBvtfRMTf+YEBOUAOkAOj5cCfIuK7EfGuiHh0ROxQ8RiD6ckIbBURD4mIjy0p+bN4yEd7yBFaiE1ygBwozYGfRsQrIuK6ycYTzKmEwLUi4i0RcRqDPoM+OUAOkAPV5sB3IuJxEaE3uBQIzCRwvaXvld4eEWfzwFf7wJd+SuA6PlGSA9PJgV8v9fx7R8TFZo4A/HGSBC6zPPD/jYGfgZ8cIAfIgWZz4JcR8YiIOM8kRzqcPhcBzSDVzNJTeeCbfeD5lDedT3nEmliX5sBnI+Ka5xoN+J9JEbhURHycgZ+BnxwgB8iBSeaAJnY/eVKjHs7+g8DOLOOb5ANf+umA6/gkSQ5MJwcOZW7AdJTBbhHxVxQ/AoAcIAfIAXJgOQe+FxGXn84wOE1PtUMfE/2mo+z5FEesyQFyoDQHfhIRV5vm0Ni+1y8fQO1rV6rf8QMDcoAcIAc6z4HfD9CHa7ngTu0Ph9Py8NkdJ84fIuLDEfH0iLjz8p7UW0wLKd5CAAIQGIWA1vLrDBbt0vrqiNBmP12+2T0pIq4wimc02jkBHR7RRXKcERHvjIg7cQBF5zGiQghAAAKLELjs0s6te0XEtzv6sPf9iNh2EYO4d3wCN42IvyyYENoO+DURoc2CKBCAAAQgkJvALZff0JZ+97+p63ToG6cN5o71Jq27REToUIhNBXdz/663BtoWWPsFUCAAAQhAoC4Ct40IfZLfXF8/6+/Pr8tlrBUBbfN42AKB12zQm4MSAhCAAASqJqBDgDQBfN6vgXUujPaNoVRE4JELDP4fWnrlr7cHFAhAAAIQaIPAXZe2fT9lznHh+Ii4UBsY2vdCg7eWcsx6rbOpv70uIs7bPiI8hAAEIDA5Atr7/8Q5x4YXTY5WpQ6/Yc4Av7hSfzEbAhCAAATKCGh53wlzjBHa42XHsia4aiwCO8y5ze+BYxlMuxCAAAQgMCgBjRO/mkMEvGdQK2nMJvDmOYL6UZZ62Jy5AQIQgEDNBLRE/M/meKEJgWwVnDTq288R0J9HxCWT+oNZEIAABCDQHwFtHLSp+WCb+ve39mcONS9CYL85gnmHRRrkXghAAAIQqJaAlot/yhw3tLHcpav1uFHDNXP/Z2Yg+T6n0WTALQhAAAKFBDSxTxP8NvWJf61/f1Jh3Vw2EIHbmwE8i7OfB4oMzUAAAhDITWB/c/z4em53pmfdwWYAXz89RHgMAQhAAAJrENguIs40x5Crr1EP/zQSgZON4J0TEVceyU6ahQAEIACBfAT+0xhD9LUAXwMkieE1zMAdPoDdsulxEbFvRLyRHxiQA+QAOWDnwKsj4lkRsesAW/He0BxH/nuAcYQmCgg81gzcIwrqnOcSzSi9z9LP0aY9a00y4d+8STnwghc50HYOnLF8LLte1/dVvmf03b9j/5i+wuDVe4gRNL3+38arvujqi0TEoYYddFZtd1bEl/iSA/3kgA70uWNRr+xf9BKzD7+W3wR3dE3gq0bQvtF14xFx4Yj4mmEDHUM/HQNc4UoOTCMHtCPfPXvoy7UvjJND9+7BBqo0CfzeCJq+U+q6vN9o30kurvUeRnjBixyYTg78MSK6/gS+VURIXJTm0XO6HkyozyOg74NKg6Xr9vCq3+zV7v4Djq1c68UWXvAiB6aVA5/ebA/tX3C8MaZo+TllRALXMYKlzmHnjm09wmyfDmpaHRTxJt7kQL85cIOO+/SPGX36YR23TXUmgZsZwdKD2OXmDXr7oEmFPOAwIAfIAXJgnBzYxxwzNnf5QUaf/vnNVcbf+yWg2aDOg3e5Ds3ZxWzbsZNrvbjCC17kwDRz4EMd9umqSvPESnPpWx23TXUmAc3CLA2WrruYWf+syx9qtu3YybVeXOEFL3JgmjmgFVhdFr1RKM2l47psmLp8AvczgqWgbu03sck7djfbLk0qrit/AGEFK3Jg2jnQ9afwvY1+/YRNjg78YRACNQmAo5a2tOQHBuQAOUAOzM4BZ2k3AmCQoTZnIzUJgJwEsQoCEIBALgIfMD6FIwByxW5QaxAAg+KmMQhAAAK9E0AA9I64jQYQAG3EES8gAAEIrBBAAKyQ4L8zCSAAZuLhjxCAAASqI4AAqC5k4xiMABiHO61CAAIQ6IsAAqAvso3ViwBoLKC4AwEITJ4AAmDyKVAGAAFQxomrIAABCNRCAAFQS6RGthMBMHIAaB4CEIBAxwQQAB0DbbU6BECrkcUvCEBgqgQQAFONvOk3AsAExuUQgAAEkhNAACQPUBbzEABZIoEdEIAABLohgADohmPztSAAmg8xDkIAAhMjgACYWMDndRcBMC857oMABCCQkwACIGdc0lmFAEgXEgyCAAQgsBABBMBC+KZzMwJgOrHGUwhAYBoEEADTiPPCXiIAFkZIBRCAAARSEUAApApHXmMQAHljg2UQgAAE5iGAAJiH2gTvQQBMMOi4DAEINE0AAdB0eLtzDgHQHUtqggAEIJCBAAIgQxQqsAEBUEGQMBECEICAQQABYMCa8qUIgClHH98hAIEWCSAAWoxqDz4hAHqASpUQgAAERiSAABgRfk1NIwBqiha2QgACENg8AQTA5hlxRUQgAEgDCEAAAm0RQAC0Fc/evEEA9IaWiiEAAQiMQgABMAr2+hpFANQXMyyGAAQgMIsAAmAWHf62jgACYB0KfoEABCDQBAEEQBNh7N8JBED/jGkBAhCAwJAEEABD0q64LQRAxcHDdAhAAAJrEEAArAGFf9qYAAJgYyb8CwQgAIGaCSAAao7egLYjAAaETVMQgAAEBiCAABgAcgtNIABaiCI+QAACEFhPAAGwngW/zSCAAJgBhz9BAAIQqJAAAqDCoI1hMgJgDOq0CQEIQKA/AgiA/tg2VTMCoKlw4gwEIACBQACQBEUEEABFmLgIAhCAQDUEEADVhGpcQxEA4/KndQhAAAJdE0AAdE200foQAI0GFrcgAIHJEkAATDb0nuMIAI8XV0MAAhDITgABkD1CSexDACQJBGZAAAIQ6IgAAqAjkK1XgwBoPcL4BwEITI0AAmBqEZ/TXwTAnOC4DQIQgEBSAgiApIHJZhYCIFtEsAcCEIDAYgQQAIvxm8zdCIDJhBpHIQCBiRBAAEwk0Iu6iQBYlCD3QwACEMhFAAGQKx5prUEApA0NhkEAAhCYiwACYC5s07sJATC9mOMxBCDQNgEEQNvx7cw7BEBnKKkIAhCAQAoCCIAUYchvBAIgf4ywEAIQgIBDAAHg0JrwtQiACQcf1yEAgSYJIACaDGv3TiEAumdKjRCAAATGJIAAGJN+RW0jACoKFqZCAAIQKCCAACiAxCURCACyAAIQgEBbBBAAbcWzN28QAL2hpWIIQAACoxBAAIyCvb5GEQD1xQyLIQABCMwigACYRYe/rSOAAFiHgl8gAAEINEEAAdBEGPt3AgHQP2NagAAEIDAkAQTAkLQrbgsBUHHwMB0CEIDAGgQQAGtA4Z82JoAA2JgJ/wIBCECgZgIIgJqjN6DtCIABYdMUBCAAgQEIIAAGgNxCEwiAFqKIDxCAAATWE0AArGfBbzMIIABmwOFPEIAABCokgACoMGhjmIwAGIM6bUIAAhDojwACoD+2TdWMAGgqnDgDAQhAIBAAJEERAQRAESYuggAEIFANAQRANaEa11AEwLj8aR0CEIBA1wQQAF0TbbQ+BECjgcUtCEBgsgQQAJMNvec4AsDjxdUQgAAEshNAAGSPUBL7EABJAoEZEIAABDoigADoCGTr1SAAWo8w/kEAAlMjgACYWsTn9BcBMCc4boMABCCQlAACIGlgspmFAMgWEeyBAAQgsBgBBMBi/CZzNwJgMqHGUQhAYCIEEAATCfSibiIAFiXI/RCAAARyEUAA5IpHWmsQAGlDg2EQgAAE5iKAAJgL2/RuQgBML+Z4DAEItE0AAdB2fDvzDgHQGUoqggAEIJCCAAIgRRjyG4EAyB8jLIQABCDgEEAAOLQmfC0CYMLBx3UIQKBJAgiAJsPavVMIgO6ZUiMEIACBMQkgAMakX1HbCICKgoWpEIAABAoIIAAKIHFJBAKALIAABCDQFgEEQFvx7M0bBEBvaKkYAhCAwCgEEACjYK+vUQRAfTHDYghAAAKzCCAAZtHhb+sIIADWoeAXCEAAAk0QQAA0Ecb+nUAA9M+YFiAAAQgMSQABMCTtittCAFQcPEyHAAQgsAYBBMAaUPinjQkgADZmwr9AAAIQqJkAAqDm6A1oOwJgQNg0BQEIQGAAAgiAASC30AQCoIUo4gMEIACB9QQQAOtZ8NsMAgiAGXD4EwQgAIEKCSAAKgzaGCYjAMagTpsQgAAE+iOAAOiPbVM1IwCaCifOQAACEAgEAElQRAABUISJiyAAAQhUQwABUE2oxjUUATAuf1qHAAQg0DUBBEDXRButDwHQaGBxCwIQmCwBBMBkQ+85jgDweHE1BCAAgewEEADZI5TEPgRAkkBgBgQgAIGOCCAAOgLZejUIgNYjjH8QgMDUCCAAphbxOf1FAMwJjtsgAAEIJCWAAEgamGxmIQCyRQR7IAABCCxGAAGwGL/J3I0AmEyocRQCEJgIAQTARAK9qJsIgEUJcj8EIACBXAQQALnikdYaBEDa0GAYBCAAgbkIIADmwja9mxAA04s5HkMAAm0TQAC0Hd/OvEMAdIaSiiAAAQikIIAASBGG/EYgAPLHCAshAAEIOAQQAA6tCV+LAJhw8HEdAhBokgACoMmwdu8UAqB7ptQIAQhAYEwCCIAx6VfUNgKgomBhKgQgAIECAgiAAkhcEoEAIAsgAAEItEUAAdBWPHvzBgHQG1oqhgAEIDAKAQTAKNjraxQBUF/MsBgCEIDALAIIgFl0+Ns6AgiAdSj4BQIQgEATBBAATYSxfycQAP0zpgUIQAACQxJAAAxJu+K2EAAVBw/TIQABCKxBAAGwBhT+aWMCCICNmfAvEIAABGomgACoOXoD2o4AGBA2TUEAAhAYgAACYADILTSBAGghivgAAQhAYD0BBMB6Fvw2gwACYAYc/gQBCECgQgIIgAqDNobJCIAxqNMmBCAAgf4IIAD6Y9tUzQiApsKJMxCAAAQCAUASFBFAABRh4iIIQAAC1RBAAFQTqnENRQCMy5/WIQABCHRNAAHQNdFG60MANBpY3IIABCZLAAEw2dB7jiMAPF5cDQEIQCA7AQRA9gglsQ8BkCQQmAEBCECgIwIIgI5Atl4NAqD1COMfBCAwNQIIgKlFfE5/EQBzguM2CEAAAkkJIACSBiabWQiAbBHBHghAAAKLEUAALMZvMncjACYTahyFAAQmQgABMJFAL+omAmBRgtwPAQhAIBcBBECueKS1BgGQNjQYBgEIQGAuAgiAubBN7yYEwPRijscQgEDbBBAAbce3M+8QAJ2hpCIIQAACKQggAFKEIb8RCID8McJCCEAAAg4BBIBDa8LXIgAmHHxchwAEmiSAAGgyrN07hQDonik1QgACEBiTAAJgTPoVtY0AqChYmAoBCECggAACoAASl0QgAMgCCEAAAm0RQAC0Fc/evEEA9IaWiiEAAQiMQgABMAr2+hpFANQXMyyGAAQgMIsAAmAWHf62jgACYB0KfoEABCDQBAEEQBNh7N8JBED/jGkBAhCAwJAEEABD0q64LQRAxcHDdAhAAAJrEEAArAGFf9qYAAJgYyb8CwQgAIGaCSAAao7egLYjAAaETVMQgAAEBiCAABgAcgtNIABaiCI+QAACEFhPAAGwngW/zSCAAJgBhz9BAAIQqJAAAqDCoI1hMgJgDOq0CQEIQKA/AgiA/tg2VTMCoKlw4gwEIACBQACQBEUEEABFmLgIAhCAQDUEEADVhGpcQxEA4/KndQhAAAJdE0AAdE200foQAI0GFrcgAIHJEkAATDb0nuMIAI8XV0MAAhDITgABkD1CSexDACQJBGZAAAIQ6IgAAqAjkK1XgwBoPcL4BwEITI0AAmBqEZ/TXwTAnOC4DQIQgEBSAgiApIHJZhYCIFtEsAcCEIDAYgQQAIvxm8zdCIDJhBpHIQCBiRBAAEwk0Iu6iQBYlCD3QwACEMhFAAGQKx5prUEApA0NhkEAAhCYiwACYC5s07sJATC9mOMxBCDQNgEEQNvx7cw7BEBnKKkIAhCAQAoCCIAUYchvBAIgf4ywEAIQgIBDAAHg0JrwtQiACQcf1yEAgSYJIACaDGv3TiEAumdKjRCAAATGJIAAGJN+RW0jACoKFqZCAAIQKCCAACiAxCURCACyAAIQgEBbBBAAbcWzN28QAL2hpWIIQAACoxBAAIyCvb5GEQD1xQyLIQABCMwigACYRYe/rSOAAFiHgl8gAAEINEEAAdBEGPt3AgHQP2NagAAEIDAkAQTAkLQrbgsBUHHwMB0CEIDAGgQQAGtA4Z82JoAA2JgJ/wIBCECgZgIIgJqjN6DtCIABYdMUBCAAgQEIIAAGgNxCEwiAFqKIDxCAAATWE0AArGfBbzMIIABmwOFPEIAABCokgACoMGhjmIwAGIM6bUIAAhDojwACoD+2TdWMAGgqnDgDAQhAIBAAJEERAQRAESYuggAEIFANAQRANaEa11AEwLj8aR0CEIBA1wQQAF0TbbQ+BECjgcUtCEBgsgQQAJMNvec4AsDjxdUQgAAEshNAAGSPUBL7EABJAoEZEIAABDoigADoCGTr1SAAWo8w/kEAAlMjgACYWsTn9BcBMCc4boMABCCQlAACIGlgspmFAMgWEeyBAAQgsBgBBMBi/CZzNwJgMqHGUQhAYCIEEAATCfSibiIAFiXI/RCAAARyEUAA5IpHWmsQAGlDg2EQgAAE5iKAAJgL2/RuQgBML+Z4DAEItE0AAdB2fDvzDgHQGUoqggAEIJCCAAIgRRjyG4EAyB8jLIQABCDgEEAAOLQmfC0CYMLBx3UIQKBJAgiAJsPavVMIgO6ZUiMEIACBMQkgAMakX1HbCICKgoWpEIAABAoIIAAKIHFJBAKALIAABCDQFgEEQFvx7M0bBEBvaKkYAhCAwCgEEACjYK+vUQRAfTHDYghAAAKzCCAAZtHhb+sIIADWoeAXCEAAAk0QQAA0Ecb+nUAA9M+YFiAAAQgMSQABMCTtittCAFQcPEyHAAQgsAYBBMAaUPinjQkgADZmwr9AAAIQqJkAAqDm6A1oOwJgQNg0BQEIQGAAAgiAASC30AQCoIUo4gMEIACB9QQQAOtZ8NsMAgiAGXD4EwQgAIEKCSAAKgzaGCYjAMagTpsQgAAE+iOAAOiPbVM1IwCaCifOQAACEAgEAElQRKAmAfDGiOAHBuQAOUAOzM6BEyLi74U/3yoaKcov2ruwXdknOykjEqhJAJQmNNeVP/ywghU5MO0cQACMOACP3TQCYNoPP50/8ScHpp0DCICxR+ER20cATPvhp/Mn/uTAtHMAATDiADx20wiAaT/8dP7EnxyYdg4gAMYehUdsHwEw7Yefzp/4kwPTzgEEwIgD8NhNjykA7m/MFqWTmnYnRfyJPznQTw58oeNBiFUAHQPts7oxBcC1EQDFS3Xo/Prp/OAK16nnwOs6HmAQAB0D7bO6MQWA/Po2IgARQA6QA+TAKDnwt4i4cccDDAKgY6B9Vje2ALhFRPyZh3+Uh3/qn3zwn0//U8+BV/UwuCAAeoDaV5VjCwD5ddeI+C0iABFADpAD5MAgOXBOROwfEefrYWBBAPQAta8qMwgA+XbxiHhiRLw3Ig7nBwbkADlADnSeAx+OiJdGxE59DShL9SIAeoTbddVZBEDXflEfBCAAAQgMTwABMDzzuVtEAMyNjhshAAEIQGADAgiADYBk/l8EQOboYBsEIACBugggACqKFwKgomBhKgQgAIHkBBAAyQO02jwEwGoa/A4BCEAAAosQQAAsQm/gexEAAwOnOQhAAAINE0AAVBRcBEBFwcJUCEAAAskJIACSB2i1eQiA1TT4HQIQgAAEFiGAAFiE3sD3IgAGBk5zEIAABBomgACoKLgIgIqChakQgAAEkhNAACQP0GrzEACrafA7BCAAAQgsQgABsAi9ge9FAAwMnOYgAAEINEwAAVBRcBEAFQULUyEAAQgkJ4AASB6g1eYhAFbT4HcIQAACEFiEAAJgEXoD34sAGBg4zUEAAhBomAACoKLgIgAqChamQgACEEhOAAGQPECrzXMFwGci4nB+YEAOkAPkADmwRg4cHxF/L/w5YfVgxO/DE3AFQGlgua78IYAVrMgBcmCKOYAAGH7MP1eLCAA6nil2PPhM3pMD4+cAAuBcw/Hw/4MAGP8hoCMiBuQAOTDFHDh5+CGPFlcTeGLhdzVTTE58plMmB8gBcqC/HDht9WDE78MTOAQBUDxhhY6gv44AtrAlB6aXA2dHxHmHH/ZocYXA0QgABAA5QA6QA+TASDlw85XBiP8OS2DbiJACQ3nDgBwgB8gBcmCMHNhv2GGP1lYI7Mbgj/ghB8gBcoAcGDEHjlkZkPjvsAQOHTHoYyhN2uQTDjlADpAD+XJgx2GHPlq7YERoBiYPAwzIAXKAHCAHxsyBvRiShyVwV3Pw/1ZEvJEfGJAD5AA5QA5sJge0uuwcY4z57LDDH629wQiOlCEzNckZCEAAAhAoJfB5Y4zRZHRNSqcMQOA8EXGSEZxfR8T5BrCLJiAAAQhAoA0CzzDGGH3IfFgbbuf34sZmYA7K7xIWQgACEIBAIgJXNceZ9yWyvWlTXmQG5l5N08A5CEAAAhDog8APjLHm9IjQ5HRKzwQ0oa90xuefImLrnu2heghAAAIQaI/Ay4yxRmPSHdtDkMujK0bE34ygfCSX+VgDAQhAAAKVELilMdZIABxQiV/VmvkEMyB7VOsphkMAAhCAwJgENHn8f40x58SI0CR1Sk8EPmkEQ28Ktu/JDqqFAAQgAIH2CRxsjDl6C3D99pGM4+FFI+LPRjC+No6ZtAoBCEAAAo0QuI8x5kgAvKARv9O58UAzEM9P5wEGQQACEIBATQQuHBFnGWPP12tyriZb32kEQUrsejU5h60QgAAEIJCSwGHG2MNXzz2EUJMxfmsEgckYPQSBKiEAAQhMkMCextijD5+6ntIhgduaAXhth21TFQQgAAEITJfA5czl53pjQOmQwH+YAuAOHbZNVRCAAAQgMG0C+m5fn+5LftiAruNc+VEheAXnDxFxgY7bz1KdNkLaOyIOjYjDK/z5dER8PyJ0QNOpEfGbiPhhROg4zVr8+VxEKB+1PlhfS/00Ir5akf3irBUysvtXEfGLiDg2Io6oyAfli7Zplf2Kwc+Wfaolh2TnV5bt/l1E6EdfWx5ZUQxWs9aGazpufdcsHWUPdmh2f8ngv3LNfXuwYZJV7mSCb/VQhhdGhJTlSoLxX1iQA+RAthyQiLlCgyOV1vc7rN/WIINRXHqOCb7FYxn3NRk4icq13oMNL3iRA7NzQG/ILj3KaNFvoz8x+mG9mdqiX3OmUbsUZekDd/bSfszbNoblhuYElFJWXFeeV7CCFTng5cBbGuuH5Y72+nfy4FYNMhjUJanIcwzo+m6wtaIVDU7ScS28yAFyYOwcODMitIlOS0Wn/TlcX96S82P48q8m8L3GMLLnNo8zGTgJyrXeAw0veJED5TnQ2qTA80fE743++Mc9jw3NV/8/Bmw9mDs2RuQapv90TuWdE6xgRQ70mwOva6w/ljuaZO7kzdUbZDCISxeKiDMM2McMYtWwjTzV8N9JSq71HmJ4wYsc8HNASxtbK5pk7uTCM1oDMJQ/9zBB7zeUYQO24xx/7CQl13oPMbzgRQ7MlwPXHLC/HKKpbSLir8bY9PkhjGqxjTcbkPVw3rwxCJpAw7r/+TodOmu4kQM5cqDFeVmabF6aX1qZdsnGxqbe3TlvRPzSgKxd2XRgUEvFfQNSmpBcV/7wwgpW5MBiOaAdA1srEjVOXuzWGoC+/bmZCfitfRs0Qv1vMBno64L/Svaj7U6dB+VLyewXz/9v+nBUQh/kh/M26TtJfdCnqdJ80pbT2Z4H2eOcaqqldBl90Aeu0jj8OSIuMkL/2WeTOxj+i5O2bqcYBF5iAr63UXctlzq7Tqmj2CqhY/ubcbxSQh+uZ/pw94Q+yCSn035mUh+cZyLrRjSvN/Npu4SxeLXpwz0T+rCoSZp0XiqCTo+ILRdtcEr3f8+A2+LJS9cy/FcS6jCOjOVThh9aX3uehE7c2fBBsbhJQh9kUgsC4MtGLLI+E48xfFA+3SlhPsmm0sFP1x2Y0IdFTdKkc4fBXRZtcCr3X8UEm/VBXyReTzcZPH6Rxnq8V6f9lT4kWXdxfKThg3zdvkeei1TdggD4oBGLbywCq8d7JRBLnwld9+webZm3an2adZZo67TG1orcC+LrAAAfGUlEQVT7NbXe/FAKCLhr3/coqLO2S3RsrtNJ6DupbEVHFzs+/Ec2B5btcQ6j+lvio6hbEADaWKY0p3TMccaiwfMvhh9ZTzfVB6/SWOg6neraUnEnqp+c9A1nuph8xkgsdbhZP3HNC1YTZpwJW5rslLHoez+ng3h4Rici4jWGHxpks5YWBMDzjVhowmDWlUHfNfzQyXoZi946Os93ixviaJ6Jw+BGGQOZyaaLm+r4a5mM78iWe5lJ9cqO2u26mr1NP67dtQEd1adZ2KUP+dEdtdlHNS0IAPdskIwT6BTbtxs5pQ85F+0jIRas88qGD3p+9MGuteJ+yFGfSJlB4KFmUukTQWvljSaD2ycF4JzjcFZE6KCNjOULRjw+kdGBZZtaEAA6XKZUjOm66yeNh/s15y2T+vEDIx762uNiSf2Y1yx3u/pvztvQVO5zD1rQEq3WivbPLu3k/hgRF0wKwPEj85scnehVGo+3JY2FzGpBAOgVamksdF3Wmdc7m348IWlevcr0o8Xl2u4+IRmXOqdIL/eoRQ0wGZeNLQLzOuYD9d+LNNbjvduafuitR9aiNbylg85LszrRiAC4nBELxWz3pPHQV516tV+aVwcl9eOOhg/y9U1J/VjErEebDLKu2FqEQSf3usl0QCet5qpEG7CUdgq6TmuKM5ZdTD8em9GJiNja9OMpSf2QWS28AdgiIs4xYvLcxPFwNjXK+upYbx8dgayVGa19aNM8EycnP544J0c1TQO6M/hJMLRWnEMmxEpL7TIWdx+Dm2Z0IiKuZubkA5P6IbNaEADy49dGTF6bOB7OngbaTvcCSX35sBEP9VnXTerHImY5W563OBdiEXbr7nUUsVRn1u++1zlk/qKZvs764Mwzzt9ldAparqWTDzOWWxt+qHPT9VlLKwLg20ZM3p81GEufGp0ljcqtrBMaH2fEQ348K3FM5jXt30wG95+3oVbvU3IrOUp/sm6OsUh87mv4L07HJj0oRMvm/mD4omszHngim440/FBMPpbYF2dviayHASkmzimh2okya245q0uUW5oom9GXw8xn5IhFOsmk97pzt96R1I/RzHqBmUQPG83S/hrWRJ9SAcR1sCIHyIEac+CvEaFJkK2VE4z++5SI0HwWyjKBrxvw9MpYs8xbKpoYc5rBoMYHH5sZsMgBckA5oPM1WivuCYlaCkpZWhqipT3Okpish8YsEsx7MPjz9oMcIAcmkgM67bW14q58yrqD6+Bx2dNM+r0Gt7D/Bp1jc/kUxacocoAcqDkHtGwu6zkN8/b22sfmd8ZYdty8DbV230cNaEr6HVsDEBHOsbk1P/jYzsBFDpADyoE7NNiPv9scy67VIAPLJZ18p33gSzuFrCffWU5vcLH2x3Y2kihlxXXleQUrWJEDw+bAfhv0gy3874ONsUz59uwWnF7EB3fpW+atVufloDWhdD4wIAfIgSnlgJZBtlb0YU6bNpXG8UutAXD90eEppbB03S3cBiq4/q0mA4cX13r5BS94kQPD5IBWc21TQf/smujM59Kb38u4DbRyvSaBON99ayez1iaOaPnfyQgASwTSQQ/TQcMZzn3nwANaGcxW+fFksz9/1Kp7J/XrrUxQ+qTcWrmhyaDvB5L66fTJAXJgqBw4uLUOPSL+yezTs57o2ntoXm6CavEsaXcP6a8m3Q50ZYtS5/svHeqycl/G/x5l5qfOBc/ox4pNrWwFLH9+ZsTm1ORxOdzwRQPzdxP7c2hEaKe/UgGhbZ1bOx1QA6fOaSllcEZEbNX7aJuwgR8YkNR56WjW1soXDQb6vujSiQFcyfBFD8crEvsi05ztqdXpZf96qpXDgBQbZ9c1fc2YuehQM+cQsMwHHInzh8x+4EaZgzOnbfuaDHads51qb9Na/lKFpOs+Uq2nmzb8EqZa1pGTmYve0DgxfWhmZyLiDYY/mseRvbQkALR8qjTXtMto1qN0V3JGhy+V+pN9A5k9DF/k8/NWIDT03/9nMnhjQ74XufJME5CSqrXyIJPBC5MD+HfTn+ybYOi7udJOWV8XZC8tCYDdjNgohldIHhxnNZQEjZabZS1iXfrc6LoWl8Lpa42fGxx+FRHnzRrQPuxyjsJUwm/fhxEj13mIkSB6UG4ysr2ba/7Dhj9nVnAalt64lHZkNbyhakkA3MmITQ3PjjtzXBOoMxft9V/67LR4uJtio0/1pQx03T9nDmiXtukkPwW9FI5OCmytSO1J9ZUyUOedXSE6ijf71xnKtxON+Ly5ggRtSQBc14iNnjEdtpW53Mb050mZnYmI/U1/tINea0Xf65f277pun9YAbMofHQXpgNFkrNbKjU0GeluQuUjUOTE9MLMzyzOTnVnz+voje2lJAFzKzLfsXyFe1DwRNfvyuduZ8Xl79odnDvsuFBF/NDhoHsgkygcMKBpUrt8gFWeGuRhovkDmooM9HAGQvUPWDmWOP4/LHJxl21oSAPqO1Zk5n33+jEJ0vJFz306ebzoZT8svS5+hGt5wzoPcmUckVleep5Ga7tGSl9OMxNBr2BbXiR5pMKjhOzJ3Umf277t2MuKjB/c+FTyELQkA4Xa+ctKKjuxFa+hLB0yJny2TO+QOftnnOM2DW7v8lcZU12X/amceBue6564mkAPOdXcb/6NPl84ciBoOzXiPEVf5nn3ji10Mf/Tg3qyC1GxNAGhuUGnnqrXp2Yu7KZh2Ec1cHmPER3Gs4S2Ny1v7tjh9vTaFaro4a6uVFHdskMZDzAfjuRUwcDZ10gzh7OVhZoy0CVL20poA0M6LpQJAO2hmL+6Ho39J7pBWbmkFV2mMapgYPA9yLXMsZaA3Oxefp5Ea7tGr/JMMGKdHhL4yaK28w2CgxMk+B+LCEaFdCkuTXP5nL88w/JHfmvCTvbQmAN5kxEhfJWYvlzX8Uc7V8HZU2xaX9gvZdzqdN3+cTavEKvt8r3k5/GMde2ky6Lr3zd1S3hu1lE974Jdy+EUFcyBubvgjv5+WNzzrLHul4dPv192V+5fWBMCLjBjpjIoa5hI5S4O1jXj28jIjRuobsu8OOg9vbXhW2t/runfN00gN97g7xek1bGvF3SLyhMQHf6wcMvNNM8GPqMAnZw+AP1Tgj2LlLGvUkqSV+Gb97zfMvNM8gKy+rNilw3FKBwudP6FzAVbuzfjfzxr+yO93ttbhL/vzI4ODVk9k37p6rjBp6Uppctcw830eCHsbDEpZcV15XsEKVuRA3hw4pYJDtebp9503ispPTUJuqlzRnBCiT4ktlh8jAIpFIB113o6a2BCbvnLgtg12/Dub/b5Ou2yqPNEEUMP3xG6AJIL6emioF7bkADnQQg60+OFPR4X/1uj/f+oOLtmv/6ThvJL4atkdmsO+15oMWniY8YFBiRwgB5wc0FyVFou7+us6rUDQPteahVuaBN9vxfEN/DjaYFDKiuvK8wpWsCIH6siBFrfEfYDZ/2tjqCbKA03HX9qE1+d2Qq+AzjA50FnV0VkRJ+JEDnSbA9k3OTp37172fxcxV+I0szGS1jU6D8gtynhWdZW2inUYcC28yAFyYKo58O6qevdyYz9hjAPaGEmbQ1Vdtlg64OB3htParESfllsr7h4IU33w8ZtBjxwgBzRmtDgOPMEYC/UcPLr2gdA9F/qttTu8Cfudg0voAOkAyQFyYOo5oB1GWyvucnidd1F1eZWpeO5dtbdrG38pc6/8qT/4+M/gRw6QA/us3Z1W/6/fMsbEMyNCZ61UW5yNb7T8Y+tqPd204bsZAVfHpwTJuK3nhjZptYbTUX+sEr90/kKpX1rbuyGXrP/f2lbA4qyJUqWx0nWHVRKvn5h+1bDNsXN6o2J11Ka71Kr/4pxhIQ73rNXba5tJrIezxfJek8PVK4GgeJV2vloBUct3es4e8x+sJFYys7XDgOST+xVjLROM3Y3TblNJHjrbweso4eonwa0Rlxsb/ab617esUUcV/6Rz7EsHCF23ZxVeeUZq0HN2gNLhP7UU55Pyl2txKiIcv15fkV8tCoBrmn3MfSuJ161Mv55SiV/7mX49shK/HDN1KuVJBgedHqtTZKsrRxpOSu1tX52HmzdYnzgcEaTdAmsolzb9qmWg1IOmU9ZKY/aCGoK1bGOLAuDiRqwUU83CrqFo8zQtAyvNw0NqcCoibm34JN9bPBJeoXqDyUHLyKsq25kJrFnyLZZ9zUDfpRIIdzb9qmU5y2Ua9Utp1aIAkF+aKFU6UOp5rKU486e0y2gNRcvCf2/ES8sBdU9rRf18ac7qupfUBkAdvuNgTZ+knFh80+Cgjmwrp/IRr32O4ZfyQN971VCub/q1aw1OLdvYqgBwJswdVFG8NMmxtA/VW6stK/Ht/YZf8v+WlfjlmHnBiDjN4PA9p/IM17ozPtXxtlb0aVJfbZQ+xDVNgtSruVK/auqcXGVei7DRs9WqAND8ktJcrOkZa1VkP8qIl+L64tYGhmV/DjU57FgLhwuZ+96fGBGaGNFa2d0McC3fTypOPzJ8q+X1pPxyY3b5ipK2VQHwASMX9UauluJ+zfavlTjmfjDSsugWi7s8/Km1QNC6xVJFrusOqMUx007nFZ447GDWP9blOtSixQlK4umsXBGD848VhDnabVUAvM7ob345B7exbnEn2opDLcXZDEdvUWsS2qUx2NaccPyZ0orHvk7rFh0BcMexDe6hfXeyy7E92NBXlfpOzolvNco1IrQKo9Q3Lc+pqbQqAJ5vxOzsivajUG45S1JrWmqr1/qlz5mu09cGLZbPGxyUuxINqYuWUUlllwb39IjQhIjWirvc5ZUVAXA3Kdm5It+cCUrfqcgvmdqqANCr79L+RtfpFXQt5aOGbzVttuV+iNBz2WJ5hhFf5e5Ds0Nwj73Va/IWi7vhxe0rgqADm0o7XL2+u0RFvn3R8O3jFfklU1sVAHczYqa8vUFFcXM/KV+jEt+0QdopRtz+UNnXbaVhuKrBQLmrXWVTF61XLB0cdN3DU3szv3HOlpd/rOwtiLO0saadDRXt44z8PXj+9BjlzlYFwI2MmKnPueso9Odr9H6mbw+er5lR7nJWEilutWx37ML8gRFjCaELuA0Mef0xhjP6TuOSQxo3UFuasOIs//v50hrel1bys39EKG6lIu+Hlfi1wv8vhm/a6XLlvhr+q1fEpXH7bEW+/afhl/zXa/Ua4iUbDzR90+FItfimSW2l+ajrXjZQ/z10My83OdxhaANL29MsdiegR5RWXNl17neSDjOu9XIMXvAiB9rIgdrm3JQOW+65D2lXze1lCoCnlRKq7DpnXTKdUxudE3EkjuRA/zlwxcrGghJzNR/iN8bYmXbfHL02dB6Cq5XQqewarQs/1eTgMONaL8fgBS9yoJ0cqOVMEXfYeps5ZqTbOXcbc1OD77uEKrneXd5C59RO50QsiSU50G8OtLpqTMdUO7mT7uych5kOaKJKi2UPk4MTdK71HhJ4wYscaCsHqjsUp3CQ0+6qZxljR7rTc90lHbcoBFPbZXsaQaRzaqtzIp7EkxzoNwdaFQAa55xNn7TKbPssg6O+93bOeP5tZdtxOpy1VpVOAAbkADlADnSfA63uCKgx5rHm2KEPmymK9vJ3kr22DVQcyDoDQLM0HR5cCy9ygBwgBzafA/quvNVyOXP/mDRHW7sbcdyn1Qgu+6UkdTYC4sHf/IMPIxiRA9POAa0ya/HY+NXD4VHGh8c/RcTWq28e6/ef1Gh0z7C0GdCZBhc6t2l3bsSf+JMDm84BfT9+sZ777AzVv9AcM0b/MK2DNZzETfPaYoBoXyUi9o2IT0SElF1rPz+OCM3n0FkG2qNaWxrrDIQW/Dx6+VRLnVYp/+Sn/G3BN/mgMw90GMtK7E6OCO201oJ/K7E7LSK0/bH8bCl2x28Qu5aeu9X596WI0NfFdxmgr87ShDuejv51uqtY0kxcyBJx7IAABCAAAQgsE3DeqI8+oV6KrfQNQKqlC6QbBCAAAQhAIBkBd06dNp8bpbizFtNtXjAKNRqFAAQgAAEIrE3AXVU32imJ7rrFdNsXrs2ff4UABCAAAQiMQsDdV+fYUaw0dy7S1wTpDjAYCxztQgACEIAABDZBwN1Zd/CD9dy9i382gTWcm4gl/wwBCEAAAhAoJuCerfP04po7utA9vUgTGygQgAAEIAABCMwm4J6u+7nZ1XX/10OM2f96/X+n7k2gRghAAAIQgECTBLTzYekKu7Mj4pJDUThfRPzGME6bqVxwKONoBwIQgAAEIFA5gb2MMVZC4RFD+Xtr07D/Gsow2oEABCAAAQg0QGAHc5wd7KTE/U3DHt5AMHABAhCAAAQgMCSBY4yxVm/atxzCuB8aRg363cQQztMGBCAAAQhAYAAC+xljrb4GuHPfNl3DNOiIvg2ifghAAAIQgECDBG5ujrev75vBM02Dnta3QdQPAQhAAAIQaJDAeZdPJS1dDaBTPc/TJ4cvmAJg8B2K+nSeupskoIfsXstHN78xIvhpm4H2JNEMax3XTYFAdgIHmWPujfpyaNuI0Hf6pWpktD2K+wJAvc0RuF5EOHNaSnOf68r7ibFY/TUiXhsRWtZMgUBWAvpw4jwje/flyO6mIaOdUtQXAOptisBOEXGqmdPOg8i1Xsc1Fq93NpXVONMaga0i4gyjn/pmXwA+aBihh3m0c4r7AkC9TRFwdtoaa3Ci3WFExF2bymycaY3Ah82x90pdA9BOfqcZRvyWV2tdh4D6OiRwGyOXGYSHGYTH5PyVDnOLqiDQNYHHmP3V47s24G6mAQd3bQD1QaBDAtqdcswBh7bz8b9Jh/lFVRDoksB2EXGO0Wd9vMvGVdeBRuPq3O7TtQHUB4GOCFw2Iv5i5jMDdr4Bu+uY8KGloweManoh8FWjz/pzRFy0Kyu0rvAko/E/RcTWXTVOPRDomMCLjFzuepChvrxCQv3WpTvONaqDQFcEnmf2W/fvqmG9GnM6rsO6aph6INAxgfNHxM/NfHZyn2u9viIbr2d1nG9UB4GuCFzX7Lfe3lXD+5gN79lVw9QDgY4JPMjM5WwDFPb0KzBOZPJyx08c1XVJ4ASj/zplaXOzLbpo/DtGo3+LiO27aJQ6INADAXcnSwbcfgfcjHzv3kPeUSUEuiDwGmMs1rOl1U4LlX8yGzxqoda4GQL9EXBfoWmnuMP5qZ7B980+rPMZ1P2lNDVPjMDtzVx+xaJ8nmQ2+MJFG+R+CPRE4E1mLn+gJzuodlgCO5hLqPQW8+rDmkhrECgioDlMvzf6seOKap1xkT4BOa/pbjCjLv4EgbEIXDwi/mjm8u3GMpZ2OyfwMTP2r+rcAiqEQDcE3mPm8jXnbfZiEaH1hKUC4Gd9H0U4ryPcN3kCTzXyWPmu18a9Hqs5+YgMC2BXM/46I+LCw5pIaxAoIvBgM5fnXtnizpjWMZsUCGQjoIHcPfGv8600s0GZmD068vl4s+PcY2KMcLcOAu4H8y/O69ZbzQfmzvM2xH0Q6JGA8rL0LZau05kXne2i1aNfVO0ReIaZB9/jLZAHmKsHI/BpI5fPjgiJBrs4aw5PjwgdGESBQDYC7klavMnKFsFu7LmEeayqxOCtummaWiDQKYEnGwJAeWyfdqm1/M6nJh2uQoFANgJaxioF7OTytbM5gT2dEXDfar63s5apCALdEXCX5+/nNn1Ps9Pc3W2A6yEwAIGXm3msV2uUdglolZIjBrUXxOXbxYFnFRM41sjlT7h+PtGoXA/UVd0GuB4CPRO4UET81sxjTrHsOSgJqj/SzIm9E9iMCRDYkIBOrywVsxILVnmZUbk6WQoEshHQW6nSB0TXnRwR2miD0jaBh5l58Qvyou2EqNQ7Z5M+7YFilbcYD8kxVs1cDIFhCHzdyGEJgH8bxixaGZnABSLiV2ZuPGBkm2keAhsSeIiZw1tuWMGs/3e2TdUrNQoEMhG4qflwaMOr7TI5gC29EnixmR+f69UaKoeAT8CdpyfhW1wONB4QrZelQCATgXcY+atP/+/MZDy29E7gCktvfDTBz/mKSIdJUSCQhcAjzfzVZljFRacIlT4cvymulQsh0D+BS0XEWUb+Ks9v1r9ZtJCMwAfNHNGHIgoEshB4rpG/6g+t8gSjcnWgWpdIgUAGAs6Dodz9VgajsWFwAruYfdwZEaHNhCgQyEDAEbA628QqdzEfjkdYtXMxBPohcL6I+ImZu4/qxxRqrYDAd81ceUoFPmFi+wTUz/3ayN2PuEjcnYYOcxvgegj0QODexkOhT/+/i4iterCDKusg4L7p/HFEWN+l1oEBKysjcEezn9NX+nZxzgLQhJor2y1wAwS6JfAp88HYv9vmqa0yAltHxB/MnFHnS4HAmAQ+YObs3eYx9iCzES0dpEBgLALXjIi/GTmra3ccy1jaTUPgdUbO6K3R/6SxHEOmSOBaEXGOkbP6cC6ha5f7GY3owZBRt7Bb4QYIdEPgADNf7e/FujGTWpIRcIWj+jnediYL4kTMOU9EfMbs5z47LxttHKAlfhrcS39+GBHag50CgSEJXCQiTjXyVPmsia4UCIiA26m+FGwQGIGAu421+rmFJui/2uxU1aBeqVEgMCSBx5l5ehyTuYYMT/q27mvmj84/sbZWTU8AA7MT0MR8Z+a/xmLNb1lokrNej7nnqathnSZIgcBQBI42O/C9hjKMdqogsEVEnGTm0G5VeIaRLRC4aES4S1Y1Dr+mC+fdbVXVsETDXDMPuzCYOiZF4LZmx31mRGwzKUI4W0LgeWYefaOkUq6BwIIEdELpx83c1Bisjasuu2Db/7j9ShGhw1JUqfPzp4jgFK0uIkAdswgcaublm2dVxt8mS0BbSKvPcvq4f54sLRwfgoBe32uyspOTK9d2Ok/lVXMaoTcBew5BijYmSeByEfEXMzdvNElSOF1C4F1mLh1SUinXQGAOApeMiK+Y+bgy+Ou4607fckqJaBeslQbc/0pAXHAOCNwCgVkE9jFz8ouzKuNvkydwczOf9Mbg0pOnBoCuCdwwIn5k5uLqMVmTWjsvejicDQhWG6TfdWzw9Tq3igqnSkDLVH9pPiQPnios/C4mcJSZU88prpkLITCbgNb5P3nOr9xXxtv3zm5isb/uaz4cK0at/FcTsJ7NEprFgsDd/yDwEDMXtYSGt1Akz+YI/IuZVydGhA5noUBgEQLXjYjPmbm3Mq6u/Ffb92+7iBGbu1cHYXx0QSNl7E8jQp/GpHgoEJiHwJfMPPz3eRrhnskR0EZmWue/0qmW/Peek6OEw10R0Ex9TUyeZ7n96tz841Bv2LUm8ZvmA7La0NW/qx6tp+WTWVfpNI16rm/mn/bD3n4aaPCyAwI6PW11P7W53z/ZQZtUMS0CV1tep3+6mWtr5aL6t12HxHeZBScpbOjE/0bEiyNipyGdoK1qCbzFfGjeX62nGD4GgR3M+U46WOoaYxhKm1UR0GR6HVmudf3OwWUbjper/1/z8kbZlGq7Dt8ErHZIqw2kwHeJiItXFV6MHYKAckKvu1bnzOZ+33kIw2ijKQKHmTnWya5rTRHEGX1lrk/6mleiUyQ1B25zfZXzd+3P86AxMevrAPcgDcdBXauJDR9cOtLwlUvfk2i3rscvvX3QBLD78zNJBm83HyJt8aoNqcgXGDg58BIzz9S56+AVpw2ubYfX7hGhLca1NPnAiNAcpS5e729qvFTddxhz8F9pW8ux3mc+LJtyin/vViHCE57kADlADrSVA6dExM1WBuAM/+1i/SJJ2laSEk/iSQ6QA+RAtzlwZERcJcOgv5YNN+54ciDJ023ywBOe5AA5QA7UlwOa6a/9/XU4UOqydUQczFcCnU724IGt74ElZsSMHCAHusgBzYPTTrxVlZtGxJcRAggBcoAcIAfIAXLAzgGtdtKn/otUNfKvMlZzAzTTVTv/daGEqAOO5AA5QA6QAy3ngNb2a7WTdglsolx4aQ3kMyNC+2a3HDh8I77kADlADpAD8+SA1vW/e6gtfcdQFtoY4e4RcXiHOyHNA5p7eEDJAXKAHCAHMuTAr5Zf9V9hjEF5rDZ1+tF+S18RHMNbAd6KkAPkADlADkwoB05d2j5aR/c+MCK0l86ky1WXd1HSroJ97p6UQe1hA586yAFygByYVg7oe/0fLB3Xe8DyDn6TH/Q3pXj0NcGOy5MH913eQ1mnBv4iIs6akEKkg5hWB0G8iTc5UHcO6IAf7dJ3bEQcsbwl8J7Lu/ZVO5N/UwP1mP+uM7svwQ8MyAFyYMQc2GbEtun/co0BY46HtA0BCEAAAhCAAAQgAAEIQAACEIAABCAAAQhAAAIQgAAEIAABCEAAAhCAAAQgAAEIQAACEIAABCAAAQhAAAIQgAAEIAABCEAAAhCAAAQgAAEIQAACEIAABCAAAQhAAAIQgAAEIAABCEAAAhCAAAQgAAEIQAACEIAABCAAAQhAAAIQgAAEIAABCEAAAhCAAAQgAAEIQAACEIAABCAAAQhAAAIQgAAEIAABCEAAAhCAAAQgAAEIQAACEIAABCAAAQhAAAIQgAAEIAABCEAAAhCAAAQgAAEIQAACEIAABCAAAQhAAAIQgAAEIAABCEAAAhCAAAQgAAEIQAACEIAABCAAAQhAAAIQgAAEIAABCEAAAhCAAAQgAAEIQAACEKiUwP8Bl/vGsTB249EAAAAASUVORK5CYII=;" vertex="1" parent="1">
          <mxGeometry x="30" y="498" width="102" height="102" as="geometry" />
        </mxCell>
        <mxCell id="F3jdzz_wUt6CEXbVW0qb-72" value="&lt;font style=&quot;font-size: 24px;&quot;&gt;Client&lt;/font&gt;" style="text;html=1;align=center;verticalAlign=middle;resizable=0;points=[];autosize=1;strokeColor=none;fillColor=none;" vertex="1" parent="1">
          <mxGeometry x="36" y="600" width="80" height="40" as="geometry" />
        </mxCell>
        <mxCell id="F3jdzz_wUt6CEXbVW0qb-73" value="" style="edgeStyle=none;orthogonalLoop=1;jettySize=auto;html=1;rounded=0;exitX=0.971;exitY=0.186;exitDx=0;exitDy=0;curved=1;exitPerimeter=0;" edge="1" parent="1" source="F3jdzz_wUt6CEXbVW0qb-71">
          <mxGeometry width="100" relative="1" as="geometry">
            <mxPoint x="375" y="520" as="sourcePoint" />
            <mxPoint x="700" y="510" as="targetPoint" />
            <Array as="points">
              <mxPoint x="410" y="390" />
            </Array>
          </mxGeometry>
        </mxCell>
        <mxCell id="F3jdzz_wUt6CEXbVW0qb-74" value="&lt;font style=&quot;font-size: 24px;&quot;&gt;Request&lt;/font&gt;" style="text;html=1;align=center;verticalAlign=middle;resizable=0;points=[];autosize=1;strokeColor=none;fillColor=none;" vertex="1" parent="1">
          <mxGeometry x="360" y="412" width="110" height="40" as="geometry" />
        </mxCell>
        <mxCell id="F3jdzz_wUt6CEXbVW0qb-75" style="edgeStyle=orthogonalEdgeStyle;rounded=0;orthogonalLoop=1;jettySize=auto;html=1;" edge="1" parent="1">
          <mxGeometry relative="1" as="geometry">
            <mxPoint x="690" y="585" as="sourcePoint" />
            <mxPoint x="150" y="585" as="targetPoint" />
          </mxGeometry>
        </mxCell>
        <mxCell id="F3jdzz_wUt6CEXbVW0qb-76" value="&lt;font style=&quot;font-size: 24px;&quot;&gt;UDP Connection&lt;/font&gt;" style="text;html=1;align=center;verticalAlign=middle;resizable=0;points=[];autosize=1;strokeColor=none;fillColor=none;" vertex="1" parent="1">
          <mxGeometry x="315" y="617" width="200" height="40" as="geometry" />
        </mxCell>
        <mxCell id="F3jdzz_wUt6CEXbVW0qb-79" value="&lt;font style=&quot;font-size: 24px;&quot;&gt;7&lt;/font&gt;" style="ellipse;whiteSpace=wrap;html=1;aspect=fixed;" vertex="1" parent="1">
          <mxGeometry x="306" y="565" width="40" height="40" as="geometry" />
        </mxCell>
        <mxCell id="F3jdzz_wUt6CEXbVW0qb-84" value="&lt;font style=&quot;font-size: 24px;&quot;&gt;8&lt;/font&gt;" style="ellipse;whiteSpace=wrap;html=1;aspect=fixed;" vertex="1" parent="1">
          <mxGeometry x="597" y="563" width="40" height="40" as="geometry" />
        </mxCell>
        <mxCell id="F3jdzz_wUt6CEXbVW0qb-85" value="&lt;font style=&quot;font-size: 36px;&quot;&gt;&lt;b&gt;QUIC&lt;/b&gt;&lt;/font&gt;" style="text;html=1;align=center;verticalAlign=middle;resizable=0;points=[];autosize=1;strokeColor=none;fillColor=none;" vertex="1" parent="1">
          <mxGeometry x="26" y="405" width="110" height="60" as="geometry" />
        </mxCell>
        <mxCell id="F3jdzz_wUt6CEXbVW0qb-96" style="edgeStyle=orthogonalEdgeStyle;rounded=0;orthogonalLoop=1;jettySize=auto;html=1;" edge="1" parent="1">
          <mxGeometry relative="1" as="geometry">
            <mxPoint x="690" y="525" as="sourcePoint" />
            <mxPoint x="150" y="525" as="targetPoint" />
          </mxGeometry>
        </mxCell>
        <mxCell id="F3jdzz_wUt6CEXbVW0qb-77" value="&lt;font style=&quot;font-size: 24px;&quot;&gt;1&lt;/font&gt;" style="ellipse;whiteSpace=wrap;html=1;aspect=fixed;" vertex="1" parent="1">
          <mxGeometry x="189" y="506" width="40" height="40" as="geometry" />
        </mxCell>
        <mxCell id="F3jdzz_wUt6CEXbVW0qb-81" value="&lt;font style=&quot;font-size: 24px;&quot;&gt;2&lt;/font&gt;" style="ellipse;whiteSpace=wrap;html=1;aspect=fixed;" vertex="1" parent="1">
          <mxGeometry x="422" y="505" width="40" height="40" as="geometry" />
        </mxCell>
        <mxCell id="F3jdzz_wUt6CEXbVW0qb-83" value="&lt;font style=&quot;font-size: 24px;&quot;&gt;3&lt;/font&gt;" style="ellipse;whiteSpace=wrap;html=1;aspect=fixed;" vertex="1" parent="1">
          <mxGeometry x="539" y="504" width="40" height="40" as="geometry" />
        </mxCell>
        <mxCell id="F3jdzz_wUt6CEXbVW0qb-95" style="edgeStyle=orthogonalEdgeStyle;rounded=0;orthogonalLoop=1;jettySize=auto;html=1;" edge="1" parent="1">
          <mxGeometry relative="1" as="geometry">
            <mxPoint x="690" y="555" as="sourcePoint" />
            <mxPoint x="150" y="555" as="targetPoint" />
          </mxGeometry>
        </mxCell>
        <mxCell id="F3jdzz_wUt6CEXbVW0qb-80" value="&lt;font style=&quot;font-size: 24px;&quot;&gt;5&lt;/font&gt;" style="ellipse;whiteSpace=wrap;html=1;aspect=fixed;" vertex="1" parent="1">
          <mxGeometry x="364" y="534" width="40" height="40" as="geometry" />
        </mxCell>
        <mxCell id="F3jdzz_wUt6CEXbVW0qb-82" value="&lt;font style=&quot;font-size: 24px;&quot;&gt;6&lt;/font&gt;" style="ellipse;whiteSpace=wrap;html=1;aspect=fixed;" vertex="1" parent="1">
          <mxGeometry x="480" y="534" width="40" height="40" as="geometry" />
        </mxCell>
        <mxCell id="F3jdzz_wUt6CEXbVW0qb-78" value="&lt;font style=&quot;font-size: 24px;&quot;&gt;4&lt;/font&gt;" style="ellipse;whiteSpace=wrap;html=1;aspect=fixed;" vertex="1" parent="1">
          <mxGeometry x="247" y="535" width="40" height="40" as="geometry" />
        </mxCell>
      </root>
    </mxGraphModel>
  </diagram>
</mxfile>
